<svg width="1512" height="982" viewBox="0 0 1512 982" fill="none" xmlns="http://www.w3.org/2000/svg">
<path d="M145.774 642.552L14.903 568.929C8.23696 565.179 0 569.996 0 577.645V972C0 977.523 4.47711 982 9.99996 982H1502C1507.52 982 1512 977.523 1512 972V543.697C1512 536.194 1504.04 531.364 1497.39 534.824L1422.27 573.872L1349 622.839C1348 623.505 1346.89 623.987 1345.72 624.261L1265.62 643.046C1263.43 643.558 1261.48 644.79 1260.08 646.544L1216.56 701.082C1215.15 702.846 1213.19 704.082 1210.99 704.589L1173.6 713.205C1171.91 713.596 1170.34 714.422 1169.06 715.601L1121.89 759.136C1119.84 761.031 1117.09 761.981 1114.3 761.754L939.659 747.52C936.546 747.267 933.493 748.482 931.406 750.807L901.805 783.778C899.908 785.891 897.203 787.098 894.364 787.098H857.807C853.683 787.098 849.982 789.629 848.487 793.472L834.005 830.698C832.51 834.541 828.809 837.072 824.685 837.072H769.812C769.081 837.072 768.352 837.153 767.638 837.312L729.741 845.754C726.116 846.562 722.341 845.293 719.939 842.46L675.992 790.63C674.092 788.389 671.303 787.098 668.365 787.098H652.583C650.308 787.098 648.101 786.322 646.326 784.899L579.876 731.607C576.536 728.929 571.862 728.674 568.25 730.972L544.6 746.026C543.467 746.746 542.202 747.232 540.878 747.453L454.54 761.878C453.619 762.032 452.723 762.314 451.88 762.717L400.807 787.098L371.465 799.353C367.542 800.992 363.011 799.971 360.17 796.806L329.02 762.11L297.614 727.128L265.176 680C263.906 678.156 262.054 676.791 259.916 676.124L226.895 665.825C226.185 665.604 225.503 665.304 224.86 664.932L190.764 645.183C189.241 644.301 187.512 643.837 185.752 643.837H150.677C148.96 643.837 147.271 643.394 145.774 642.552Z" fill="#34A591"/>
</svg>
