<svg width="1512" height="982" viewBox="0 0 1512 982" fill="none" xmlns="http://www.w3.org/2000/svg">
<path d="M165.102 621.776L13.226 570.014C6.73852 567.803 0 572.625 0 579.479V971.908C0 977.431 4.47712 981.908 9.99997 981.908H1499.04C1504.56 981.908 1509.04 977.431 1509.04 971.908V574.308C1509.04 567.074 1501.59 562.234 1494.98 565.168L1378.15 617.008L1272.58 660.38C1271.84 660.685 1271.13 661.08 1270.48 661.555L1223.29 696.033C1222.42 696.674 1221.44 697.168 1220.4 697.495L1113.74 731.164C1111.88 731.753 1109.88 731.781 1107.99 731.245L1080.08 723.3L900.738 697.467C898.637 697.164 896.495 697.538 894.62 698.534L867.721 712.827C865.646 713.93 863.249 714.266 860.95 713.778L786.703 697.997C783.741 697.367 780.653 698.114 778.306 700.027L773.283 704.121C771.137 705.871 768.362 706.652 765.619 706.279L699.45 697.29C698.051 697.1 696.627 697.208 695.273 697.608L637.934 714.534L550.805 739.941C548.814 740.521 546.691 740.468 544.732 739.789L498.741 723.852C497.688 723.487 496.581 723.3 495.466 723.3H450.218C449.248 723.3 448.283 723.159 447.354 722.882L362.166 697.42C361.237 697.142 360.273 697.001 359.303 697.001H298.738C296.191 697.001 293.74 696.03 291.885 694.284L276.718 680.013C275.572 678.935 274.188 678.142 272.677 677.7L256.277 672.894L195.369 648.408C194.19 647.934 193.112 647.24 192.193 646.362L168.782 624.009C167.732 623.006 166.476 622.244 165.102 621.776Z" fill="#159888"/>
<path d="M256.599 692.657C256.192 692.657 255.858 692.99 255.858 693.397C255.858 693.805 257.525 694.138 259.562 694.138C261.599 694.138 263.266 693.805 263.266 693.397C263.266 692.99 262.752 692.657 262.125 692.657C261.172 692.657 261.019 691.648 261.199 686.545C261.366 681.79 261.653 680.434 262.492 680.434C263.084 680.434 263.801 681.267 264.085 682.286L264.6 684.138L264.674 682.101C264.714 680.98 265.1 680.064 265.532 680.064C265.963 680.064 266.088 679.695 265.809 679.244C265.464 678.685 265.833 678.592 266.965 678.951C268.187 679.339 268.539 679.213 268.295 678.475C268.112 677.923 266.823 677.299 265.429 677.088C263.081 676.732 263.004 676.639 264.377 675.814C265.823 674.945 265.818 674.923 264.192 674.901C262.98 674.885 262.511 674.424 262.473 673.212C262.423 671.621 262.392 671.613 261.784 673.027C261.384 673.959 261.128 670.89 261.096 664.746C261.053 656.81 261.261 654.766 262.208 653.82C264.049 651.978 267.999 652.371 270.728 654.667C272.828 656.434 273.014 656.484 272.261 655.076C271.789 654.194 270.664 652.955 269.762 652.323L268.122 651.174H270.175C271.304 651.174 273.212 651.683 274.414 652.304C276.821 653.549 276.987 653.247 275.785 649.799C274.931 647.35 273.964 646.899 268.822 646.557L265.858 646.359L268.364 645.143C271.349 643.694 274.782 644.37 276.785 646.802L278.081 648.375V646.812C278.081 642.291 270.979 640.71 265.962 644.115C262.687 646.337 262.433 645.227 265.512 642.148C267.011 640.649 268.242 640.029 269.215 640.284C271.114 640.78 271.098 639.602 269.192 638.581C267.135 637.481 267.33 636.817 270.118 635.43C272.487 634.251 272.494 634.231 270.592 634.184C269.528 634.158 267.406 634.987 265.875 636.025C264.344 637.064 262.945 637.767 262.765 637.587C262.585 637.407 262.962 636.006 263.603 634.474C264.243 632.941 264.634 631.554 264.471 631.392C264.176 631.096 261.639 635.004 260.766 637.1C260.511 637.711 260.427 636.4 260.578 634.186C260.816 630.693 260.722 630.339 259.867 631.508C259.325 632.249 258.669 634.278 258.408 636.017L257.934 639.178L255.311 637.398C252.613 635.567 249.932 635.049 249.932 636.359C249.932 636.767 250.564 637.1 251.337 637.1C252.769 637.1 257.34 641.691 257.34 643.129C257.34 643.564 256.162 642.886 254.721 641.621C252.944 640.061 251.331 639.322 249.701 639.322C247.226 639.322 244.006 641.051 244.006 642.381C244.006 642.795 244.851 642.469 245.883 641.657C247.378 640.482 248.222 640.313 250.029 640.831C254.756 642.187 255.798 644.43 251.599 644.209C250.071 644.128 247.821 644.295 246.599 644.58L244.377 645.097L246.414 645.172C248.448 645.248 249.111 646.234 247.71 647.1C247.303 647.352 246.969 647.93 246.969 648.384C246.969 648.839 247.799 648.43 248.814 647.477C250.486 645.906 250.849 645.837 252.703 646.732L254.747 647.72L251.83 648.242C250.184 648.537 248.328 649.486 247.571 650.422C245.611 652.842 245.93 653.623 248.266 652.12L250.303 650.809L248.266 653.271C247.145 654.625 246.239 656.124 246.252 656.602C246.265 657.08 246.959 656.554 247.795 655.434C249.876 652.645 250.645 652.879 250.23 656.174L249.881 658.952L251.22 655.619C252.282 652.973 252.968 652.238 254.542 652.055C255.633 651.928 257.209 652.189 258.044 652.636C259.467 653.398 259.562 654.121 259.562 664.164C259.562 674.581 259.519 674.878 257.994 674.878C256.752 674.878 256.513 674.546 256.845 673.276C257.232 671.799 257.171 671.767 256.064 672.874C254.958 673.98 254.789 673.975 253.903 672.81C253.043 671.677 252.94 671.76 252.919 673.608C252.898 675.416 252.718 675.576 251.462 674.905C249.078 673.628 247.932 674.085 250.117 675.44C252.898 677.164 252.674 677.833 249.488 677.316C247.63 677.014 246.622 677.197 246.166 677.918C245.123 679.564 245.369 679.956 247.154 679.496C248.648 679.111 248.714 679.197 247.79 680.323C246.903 681.405 246.911 681.521 247.852 681.16C248.701 680.834 248.873 681.228 248.623 682.928C248.447 684.131 248.659 685.729 249.095 686.478C249.801 687.694 249.89 687.628 249.91 685.865C249.943 682.941 250.668 681.545 252.155 681.545C253.598 681.545 254.377 682.953 254.377 685.565C254.377 686.487 255.043 687.845 255.858 688.582C257.4 689.978 257.887 692.657 256.599 692.657Z" fill="#159888"/>
<path fill-rule="evenodd" clip-rule="evenodd" d="M205.29 664.581C205.29 665.731 206.03 666.012 209.649 666.234C212.046 666.381 214.461 666.398 215.016 666.272C215.572 666.145 216.28 666.042 216.59 666.042C216.9 666.042 217.175 662.375 217.2 657.894C217.262 646.914 217.624 641.029 218.239 641.029C218.519 641.029 219.173 641.541 219.692 642.166C220.211 642.792 221.105 643.303 221.679 643.303C223.625 643.303 222.741 639.848 220.071 637.017C218.612 635.47 217.418 633.864 217.418 633.448C217.418 632.394 219.955 632.501 221.056 633.601C221.763 634.309 221.965 634.202 221.965 633.122C221.965 632.359 220.829 630.662 219.439 629.352C217.891 627.891 216.743 625.95 216.472 624.335C216.229 622.887 215.795 621.105 215.506 620.375C214.52 617.881 216.279 619.132 219.295 623.071C221.542 626.005 222.376 626.668 222.573 625.675C223.001 623.515 221.364 619.558 218.95 616.915L216.702 614.453L219.144 612.945C220.487 612.116 222.354 611.237 223.292 610.992C225.281 610.473 225.504 609.552 223.798 608.897C221.949 608.188 218.995 608.351 217.303 609.257C216.461 609.708 215.606 609.91 215.402 609.706C214.878 609.182 217.08 605.114 218.546 603.897C219.222 603.336 220.109 602.252 220.518 601.488C221.151 600.305 220.965 600.1 219.264 600.1C217.263 600.1 212.741 603.855 211.988 606.142C211.703 607.007 211.16 606.796 209.566 605.202C207.008 602.644 204.261 601.909 201.673 603.088L199.683 603.995L203.649 606.164C207.16 608.084 210.499 611.037 210.571 612.285C210.585 612.526 209.586 612.574 208.351 612.393C205.847 612.025 200.215 614.426 198.1 616.763C196.701 618.309 195.524 625.133 196.665 625.084C197.032 625.068 198.258 623.715 199.391 622.077C201.28 619.346 206.575 615.259 208.225 615.259C208.606 615.259 208.271 616.525 207.483 618.072C205.889 621.198 205.702 623.537 206.753 627.202C207.188 628.718 207.188 629.66 206.753 629.66C206.366 629.66 206.048 629.164 206.048 628.559C206.048 626.557 204.328 623.637 202.407 622.378L200.514 621.138L201.002 623.694C201.271 625.099 201.705 627.195 201.966 628.351L202.442 630.453L200.233 629.185C197.377 627.546 193.276 628.257 190.881 630.806C188.726 633.1 189.289 633.892 192.324 632.834C193.581 632.396 195.544 632.299 196.721 632.618L198.848 633.193L196.017 634.134C192.628 635.261 190.131 638.187 190.131 641.032V643.103L192.974 640.419L195.816 637.735L196.279 641.846C196.755 646.082 198.517 651.113 199.802 651.907C200.221 652.166 200.732 650.433 201.004 647.835C201.506 643.026 203.239 637.998 204.394 637.998C207.015 637.998 208.878 660.218 206.427 662.252C205.802 662.771 205.29 663.819 205.29 664.581ZM213.968 624.06C213.685 622.346 213.282 620.656 213.073 620.305C212.659 619.608 209.569 624.499 208.766 627.123C208.286 628.691 208.39 628.724 211.375 627.966L214.484 627.177L213.968 624.06ZM213.895 638.721C214.252 639.077 214.173 642.751 213.721 646.913C213.269 651.064 212.592 655.276 212.217 656.272C211.641 657.8 211.449 657.371 210.994 653.536C210.37 648.272 208.541 640.581 207.413 638.473C206.684 637.111 206.845 637.052 209.942 637.547C211.761 637.837 213.54 638.366 213.895 638.721Z" fill="#159888"/>
<path d="M1474.68 599.619C1469.82 604.013 1470.13 609.254 1475.3 610.249C1482.23 611.585 1485.25 611.615 1491.28 610.41C1496.61 609.344 1496.84 608.98 1494.44 605.549C1492.33 602.537 1492.03 594.292 1492.85 561.629C1493.79 524.663 1492.82 509.591 1488.74 497.254C1488.07 495.21 1491.75 498.137 1496.91 503.76L1506.31 513.982L1506.37 508.26C1506.43 502.33 1496.51 485.173 1493.02 485.173C1489.25 485.173 1495.27 480.166 1503.17 476.731C1513.29 472.328 1513.34 472.283 1510.09 470.231C1506.44 467.919 1497.74 467.99 1493.3 470.369C1487.2 473.632 1488.89 466.351 1496.21 457.797C1499.79 453.617 1502.71 449.703 1502.71 449.098C1502.71 448.494 1500.54 448 1497.88 448C1492.21 448 1480.42 458.854 1480.4 464.077C1480.4 466.843 1479.4 466.375 1475.29 461.682C1469.33 454.866 1463.89 452.826 1456.21 454.514C1449.04 456.087 1449.2 458.11 1456.71 461.124C1464.09 464.086 1470.17 468.598 1474.94 474.663L1478.54 479.242L1471.58 478.405C1466.17 477.754 1462.4 478.858 1454.71 483.349C1443.54 489.867 1438.2 498.887 1440.84 506.783C1442.31 511.2 1442.53 511.074 1449.31 501.995C1453.14 496.866 1459.58 490.983 1463.62 488.922C1472.1 484.597 1474.18 484.224 1471.59 487.496C1467.8 492.269 1465.44 503.437 1466.65 510.945C1467.32 515.171 1468.39 518.617 1469.03 518.604C1469.67 518.591 1472.61 513.53 1475.58 507.358C1478.54 501.186 1481.65 496.824 1482.49 497.665C1485.87 501.042 1487.43 524.197 1485.79 546.653C1483.72 575.032 1479.47 595.286 1474.68 599.619Z" fill="#159888"/>
<path d="M1046.43 733.63C1043.76 736.044 1043.93 738.923 1046.77 739.47C1050.58 740.204 1052.23 740.221 1055.55 739.558C1058.47 738.973 1058.6 738.773 1057.28 736.888C1056.12 735.233 1055.96 730.703 1056.41 712.759C1056.92 692.451 1056.39 684.17 1054.15 677.393C1053.78 676.27 1055.8 677.878 1058.64 680.967L1063.81 686.583L1063.84 683.439C1063.87 680.182 1058.42 670.756 1056.5 670.756C1054.43 670.756 1057.74 668.005 1062.08 666.118C1067.64 663.699 1067.66 663.674 1065.88 662.547C1063.87 661.277 1059.1 661.316 1056.65 662.623C1053.31 664.416 1054.23 660.416 1058.25 655.716C1060.22 653.42 1061.83 651.269 1061.83 650.937C1061.83 650.605 1060.63 650.334 1059.17 650.334C1056.06 650.334 1049.58 656.297 1049.57 659.166C1049.57 660.686 1049.02 660.429 1046.76 657.851C1043.49 654.106 1040.5 652.985 1036.28 653.913C1032.34 654.777 1032.43 655.888 1036.56 657.544C1040.61 659.171 1043.95 661.65 1046.57 664.982L1048.55 667.497L1044.72 667.037C1041.75 666.68 1039.68 667.286 1035.45 669.754C1029.32 673.335 1026.39 678.29 1027.83 682.628C1028.64 685.055 1028.77 684.985 1032.49 679.997C1034.59 677.18 1038.13 673.948 1040.35 672.815C1045.01 670.439 1046.15 670.234 1044.73 672.032C1042.65 674.654 1041.35 680.79 1042.01 684.914C1042.38 687.236 1042.97 689.129 1043.32 689.122C1043.67 689.115 1045.29 686.335 1046.92 682.944C1048.55 679.553 1050.26 677.157 1050.72 677.619C1052.57 679.474 1053.43 692.195 1052.53 704.531C1051.39 720.122 1049.06 731.249 1046.43 733.63Z" fill="#159888"/>
<path d="M1079.15 742.1C1081.82 744.514 1081.65 747.393 1078.81 747.94C1075 748.674 1073.35 748.691 1070.03 748.028C1067.11 747.443 1066.98 747.243 1068.3 745.358C1069.46 743.703 1069.62 739.174 1069.17 721.229C1068.66 700.921 1069.19 692.641 1071.43 685.863C1071.8 684.74 1069.78 686.348 1066.94 689.437L1061.77 695.053L1061.74 691.91C1061.71 688.652 1067.16 679.226 1069.08 679.226C1071.15 679.226 1067.84 676.475 1063.5 674.588C1057.94 672.169 1057.91 672.144 1059.7 671.017C1061.71 669.747 1066.48 669.786 1068.92 671.093C1072.27 672.886 1071.35 668.886 1067.33 664.186C1065.36 661.89 1063.75 659.739 1063.75 659.407C1063.75 659.075 1064.95 658.804 1066.41 658.804C1069.52 658.804 1076 664.767 1076.01 667.636C1076.01 669.156 1076.56 668.899 1078.82 666.321C1082.09 662.576 1085.08 661.455 1089.3 662.383C1093.24 663.247 1093.15 664.358 1089.02 666.014C1084.97 667.641 1081.63 670.12 1079.01 673.452L1077.03 675.968L1080.86 675.508C1083.83 675.15 1085.9 675.756 1090.13 678.224C1096.26 681.805 1099.19 686.76 1097.75 691.098C1096.94 693.525 1096.81 693.455 1093.09 688.468C1090.99 685.65 1087.45 682.418 1085.23 681.285C1080.57 678.909 1079.43 678.704 1080.85 680.502C1082.93 683.124 1084.23 689.26 1083.57 693.384C1083.2 695.706 1082.61 697.599 1082.26 697.592C1081.91 697.585 1080.29 694.805 1078.66 691.414C1077.03 688.023 1075.32 685.627 1074.86 686.089C1073.01 687.944 1072.15 700.665 1073.05 713.001C1074.19 728.593 1076.52 739.72 1079.15 742.1Z" fill="#159888"/>
<path fill-rule="evenodd" clip-rule="evenodd" d="M957.762 754.196C954.748 753.151 955.8 750.974 959.319 750.974C965.584 750.974 967.547 746.73 968.394 731.346C969.405 713.011 968.733 710.676 961.177 706.247C954.167 702.139 950.593 701.721 948.324 704.745C947.456 705.901 943.72 707.135 940.022 707.486C936.324 707.837 932.736 708.472 932.048 708.898C929.898 710.227 923.313 706.32 923.301 703.708C923.301 702.34 922.807 701.22 922.216 701.22C918.755 701.22 917.185 688.253 920.323 685.584C920.782 685.193 921.994 683.383 923.017 681.563C924.521 678.884 924.531 677.839 923.07 676.079C921.589 674.295 921.679 673.601 923.567 672.22C924.833 671.295 926.182 668.645 926.563 666.333C928.498 654.612 931.164 652.04 944.139 649.375C946.614 648.866 948.989 647.541 949.415 646.43C949.841 645.319 952.774 643.997 955.931 643.492C959.088 642.988 961.671 642.11 961.671 641.542C961.671 639.39 969.398 632.296 971.283 632.718C972.367 632.961 974.056 632.495 975.037 631.681C976.133 630.771 978.417 630.654 980.972 631.376C983.257 632.021 985.812 632.313 986.651 632.023C987.49 631.734 989.729 634.618 991.626 638.433C995.238 645.693 1000.35 649.024 1005.72 647.618C1007.33 647.199 1008.58 647.568 1008.58 648.458C1008.58 649.331 1010.18 650.045 1012.14 650.045C1014.09 650.045 1015.69 650.685 1015.69 651.467C1015.69 652.249 1016.65 652.889 1017.82 652.889C1018.99 652.889 1019.95 653.528 1019.95 654.31C1019.95 655.092 1020.79 655.732 1021.81 655.732C1023.16 655.732 1023.6 658.068 1023.43 664.252C1023.27 669.983 1023.83 673.302 1025.15 674.391C1026.62 675.612 1026.7 676.486 1025.49 677.947C1024.28 679.409 1024.42 680.697 1026.06 683.208C1028.04 686.235 1028 687.077 1025.52 692.61C1024.02 695.953 1022.8 700.217 1022.8 702.087C1022.8 704.16 1021.97 705.485 1020.66 705.485C1019.49 705.485 1018.53 706.401 1018.53 707.519C1018.53 709.003 1017 709.458 1012.87 709.199C1009.75 709.004 1006.77 708.408 1006.23 707.875C1005.7 707.343 1004.09 706.907 1002.66 706.907C1000.95 706.907 1000.05 705.868 1000.05 703.9C1000.05 701.031 999.892 700.999 996.549 703.189C994.622 704.452 992.208 705.485 991.186 705.485C990.164 705.485 986.943 707.451 984.029 709.853L978.73 714.221V727.53C978.73 744.338 979.783 747.106 987.325 750.124C990.611 751.439 993.05 752.764 992.745 753.069C991.929 753.885 959.846 754.919 957.762 754.196ZM991.357 695.64C990.469 698.318 987.425 702.565 984.592 705.076C981.759 707.588 978.922 709.667 978.287 709.696C976.803 709.765 978.656 696.789 980.453 694.531C981.204 693.587 981.45 692.221 981 691.493C980.033 689.928 984.085 686.2 985.364 687.479C985.847 687.963 985.352 689.493 984.263 690.88C982.463 693.173 982.509 693.225 984.771 691.451C986.622 689.999 987.747 689.905 989.167 691.083C990.216 691.954 991.501 692.24 992.023 691.718C992.545 691.196 992.245 692.961 991.357 695.64ZM981.026 683.141C980.545 682.66 980.152 683.056 980.152 684.021C980.152 685.128 979.103 685.443 977.308 684.873C974.711 684.049 974.465 684.617 974.465 691.453V698.936L978.183 691.476C980.227 687.373 981.507 683.622 981.026 683.141ZM961.672 685.151C961.672 681.555 966.594 682.211 968.666 686.082C969.649 687.92 970.237 690.849 969.972 692.591C969.499 695.7 969.419 695.683 965.581 691.659C963.431 689.405 961.672 686.476 961.672 685.151ZM968.006 702.19C966.822 697.469 960.673 691.27 957.177 691.27C954.62 691.27 954.602 691.492 956.804 695.89C959.736 701.747 966.29 708.348 967.792 706.957C968.421 706.374 968.518 704.228 968.006 702.19ZM952.775 696.754C953.733 695.797 954.904 695.4 955.377 695.873C955.85 696.346 956.02 697.726 955.756 698.939C955.413 700.511 954.665 700.765 953.154 699.821C951.481 698.775 951.401 698.129 952.775 696.754ZM997.21 696.685C997.21 692.934 993.786 694.165 993.203 698.126C992.863 700.431 993.311 700.991 994.98 700.351C996.206 699.88 997.21 698.231 997.21 696.685ZM971.667 684.162C972.424 684.162 973.044 685.122 973.044 686.294C973.044 687.467 972.792 688.427 972.485 688.427C972.178 688.427 971.558 687.467 971.108 686.294C970.658 685.122 970.91 684.162 971.667 684.162Z" fill="#159888"/>
<path d="M558.384 686.704C558.404 688.238 558.57 708.52 558.752 731.776H558.759C558.941 755.033 559.782 774.061 560.627 774.061C561.471 774.061 562.231 753.897 562.314 729.252C562.405 702.525 563.205 683.705 564.297 682.613C566.488 680.422 576.341 686.214 574.763 688.766C574.201 689.677 576.299 690.421 579.426 690.421H585.112L585.49 706.685L585.868 722.948L586.502 707.209C587.116 691.932 588.423 688.659 593.941 688.591C595.73 688.569 596.264 698.027 596.264 729.763C596.264 752.423 596.891 770.331 597.658 769.558C598.425 768.785 599.108 749.2 599.176 726.034C599.328 674.484 599.322 674.579 602.307 676.924C606.428 680.16 616.709 681.329 616.709 678.561C616.709 677.029 618.742 676.161 622.044 676.284C625.621 676.416 627.073 677.283 626.451 678.912C625.94 680.248 624.376 680.902 622.975 680.364C621.573 679.826 620.426 680.196 620.426 681.187C620.426 682.177 622.099 682.987 624.144 682.987C627.751 682.987 627.861 684.226 627.861 724.916C627.861 747.977 628.578 766.403 629.454 765.861C630.33 765.32 631.092 745.104 631.148 720.937C631.208 694.81 631.989 676.257 633.074 675.172C635.312 672.934 645.088 678.818 643.472 681.431C641.752 684.215 663.611 681.489 666.547 678.553C669.657 675.444 667.854 668.118 663.979 668.118C662.515 668.118 661.317 667.281 661.317 666.259C661.317 665.237 659.693 664.4 657.709 664.4C655.725 664.4 653.619 663.62 653.03 662.667C652.441 661.714 649.385 661.007 646.238 661.096C643.092 661.186 639.852 660.183 639.04 658.867C638.021 657.219 635.47 656.868 630.828 657.739C625.739 658.694 623.836 658.328 623.035 656.239C622.452 654.719 619.593 652.953 616.682 652.313C613.771 651.674 610.378 649.931 609.141 648.44C607.866 646.904 605.395 646.205 603.436 646.827C601.536 647.43 599.928 647.239 599.863 646.404C599.797 645.568 599.478 642.187 599.153 638.889C598.4 631.249 601.925 627.947 607.27 631.285C609.395 632.612 611.133 634.758 611.133 636.055C611.133 637.821 613.811 638.118 621.82 637.238C635.273 635.76 638.687 632.999 635.556 626.127C634.314 623.401 632.831 621.638 632.26 622.209C631.689 622.78 628.35 621.633 624.839 619.661C621.328 617.689 615.971 616.076 612.935 616.076C609.9 616.076 607.416 615.329 607.416 614.416C607.416 611.885 601.641 610.222 599.281 612.073C598.133 612.973 593.413 613.685 588.793 613.654C582.645 613.612 578.16 615.03 572.065 618.941C567.485 621.88 563.509 624.409 563.229 624.561C561.384 625.562 565.582 630.418 569.808 632.171C579.462 636.174 585.112 636.81 585.112 633.892C585.112 632.098 586.979 631.246 590.681 631.352C595.424 631.487 595.906 631.926 593.933 634.318C592.077 636.56 592.078 637.283 593.933 637.907C595.211 638.337 596.257 639.93 596.257 641.447C596.257 643.356 595.116 643.844 592.556 643.031C590.521 642.385 587.802 642.522 586.515 643.334C585.228 644.147 580.231 644.904 575.41 645.017C569.069 645.165 564.57 646.658 559.146 650.417C550.584 656.35 549.917 658.947 555.831 663.326L560.013 666.423L554.886 665.372C547.577 663.874 527.487 673.717 527.487 678.796C527.487 681.554 534.892 685.92 541.891 687.289C546.448 688.18 547.932 687.815 547.932 685.803C547.932 684.029 549.674 683.267 553.139 683.526C556.335 683.766 558.361 684.993 558.384 686.704Z" fill="#159888"/>
<path d="M584.991 734.063C584.082 737.109 583.843 742.755 584.459 746.609C586.137 757.1 586.982 755.103 586.804 741.07C586.671 730.684 586.359 729.478 584.991 734.063Z" fill="#159888"/>
<path d="M636.373 678.538C634.754 679.159 633.43 680.484 633.43 681.482C633.43 683.925 637.654 682.395 638.58 679.617C639.033 678.259 638.183 677.843 636.373 678.538Z" fill="#159888"/>
<path d="M605.55 632.803C604.528 632.803 603.691 633.64 603.691 634.662C603.691 635.684 604.528 636.521 605.55 636.521C606.572 636.521 607.408 635.684 607.408 634.662C607.408 633.64 606.572 632.803 605.55 632.803Z" fill="#159888"/>
<path d="M38.7879 589.224C38.8597 600.043 39.4935 609.47 40.1963 610.173C44.1936 614.17 45.5031 608.079 46.5656 580.556C47.1939 564.282 47.8216 550.34 47.9596 549.573C48.5229 546.454 51.9287 548.448 51.9287 551.896C51.9287 556.727 54.5152 556.634 57.8009 551.685C59.2354 549.525 62.6352 547.513 65.3558 547.214C71.9692 546.488 74.2325 544.896 74.2325 540.97C74.2325 536.269 63.4048 524.819 59.6957 525.597C56.9986 526.163 57.0547 525.736 60.124 522.344C65.4049 516.509 75.0743 517.594 70.194 523.474C66.7313 527.647 72.5676 532.473 77.7329 529.709C82.654 527.075 82.8412 522.117 78.0666 520.868C75.1473 520.105 74.7774 519.108 76.1116 515.599C77.0166 513.218 77.7327 506.23 77.7035 500.068C77.6509 489.068 77.5285 488.805 70.9246 485.531C64.7162 482.453 64.1923 481.554 64.1044 473.833C64.0123 465.693 63.8514 465.469 58.099 465.469C52.6362 465.469 44.494 459.687 44.494 455.808C44.494 455.009 46.6189 456.647 49.2159 459.448C53.3778 463.936 57.5046 466.069 57.5046 463.732C57.5046 455.638 42.845 444.856 38.345 449.64C36.6287 451.464 36.6531 452.186 38.4537 452.846C42.782 454.433 40.8074 457.105 35.3065 457.105C31.8783 457.105 28.8282 458.544 27.1366 460.959C25.3546 463.503 23.9993 464.104 23.1484 462.728C21.4517 459.982 17.2287 463.382 15.4948 468.89C14.7997 471.097 12.2559 475.819 9.8419 479.383C5.8123 485.332 5.71968 485.956 8.71048 487.005C10.502 487.633 11.9679 489.222 11.9679 490.535C11.9679 491.849 13.9654 493.662 16.4067 494.565C20.0437 495.911 20.466 495.75 18.7459 493.678C17.5913 492.286 17.1972 490.598 17.8698 489.925C20.1064 487.689 22.1897 488.661 22.219 491.955C22.2428 494.683 22.5261 494.767 23.9764 492.473C24.9274 490.97 26.3015 490.335 27.0297 491.063C29.1129 493.146 33.336 488.659 33.4015 484.293C33.4697 479.732 37.4458 473.833 40.4518 473.833C41.5809 473.833 43.3597 475.43 44.4045 477.383C45.6606 479.73 47.5718 480.601 50.0458 479.954C52.8849 479.212 53.7875 479.882 53.7875 482.736C53.7875 485.715 54.6557 486.272 57.9695 485.418C61.6061 484.481 61.8366 484.724 59.7379 487.285C58.1157 489.264 57.9634 490.625 59.2733 491.435C62.021 493.133 61.7075 496.623 58.8988 495.605C57.6209 495.142 55.1117 496.038 53.3228 497.597C49.2136 501.176 48.9993 497.473 53.0795 493.393C54.7346 491.738 55.5709 489.866 54.938 489.233C53.5321 487.827 53.2918 488.079 48.6139 495.855L44.8701 502.079L43.6098 496.341C42.9168 493.185 41.5776 490.126 40.634 489.543C39.6904 488.96 38.86 486.232 38.7876 483.481C38.6727 479.082 38.4779 478.928 37.1696 482.197C36.1761 484.68 36.921 488.37 39.4122 493.307C42.9794 500.377 44.4542 513.524 41.9598 516.019C39.7889 518.19 38.3887 514.89 37.4836 505.471C36.9904 500.337 35.9349 496.137 35.1385 496.137C34.342 496.137 34.1754 498.019 34.7681 500.319C35.728 504.044 35.5059 504.222 32.7353 501.95C30.8982 500.443 29.625 500.208 29.625 501.376C29.625 502.463 30.4615 503.869 31.4838 504.501C32.5061 505.133 33.3425 506.566 33.3425 507.687C33.3425 508.807 31.7007 508.238 29.6943 506.422C27.6878 504.606 24.7605 503.614 23.1891 504.217C21.6176 504.82 20.3319 504.503 20.3319 503.513C20.3319 500.588 14.8703 501.455 11.1915 504.966C6.41094 509.527 4.88287 515.743 7.39051 520.429C8.93394 523.312 8.96234 524.978 7.49363 526.447C6.37677 527.564 5.46289 530.094 5.46289 532.07C5.46289 536.097 12.4942 543.072 14.996 541.526C17.6219 539.903 16.8471 537.027 13.7839 537.027C11.3061 537.027 11.333 536.447 13.9999 532.377C15.6754 529.82 16.5893 525.979 16.0306 523.842C15.1056 520.305 15.2941 520.211 18.1379 522.792C22.6115 526.851 28.3192 537.027 26.1227 537.027C25.103 537.027 23.7518 536.191 23.12 535.169C22.4881 534.146 20.557 533.376 18.8285 533.457C16.2678 533.576 16.202 533.797 18.4733 534.651C22.7626 536.263 31.4839 542.689 31.4839 544.238C31.4839 544.998 29.8112 547.415 27.7667 549.61C23.886 553.775 22.6957 561.19 25.908 561.19C26.9302 561.19 27.7667 562.444 27.7667 563.978C27.7667 567.288 32.5418 567.706 34.4829 564.566C37.0891 560.349 38.6555 569.323 38.7879 589.224Z" fill="#159888"/>
<path d="M20.7437 544.462C17.7892 544.462 12.4797 551.575 13.818 553.741C16.1373 557.494 21.2402 554.835 21.8494 549.557C22.1729 546.755 21.6754 544.462 20.7437 544.462Z" fill="#159888"/>
<path d="M22.9338 496.633C22.3204 497.246 22.4735 498.808 23.2742 500.104C24.4451 501.998 24.883 502 25.5125 500.111C26.4109 497.416 24.5973 494.969 22.9338 496.633Z" fill="#159888"/>
<path fill-rule="evenodd" clip-rule="evenodd" d="M1175.31 733.744C1175.31 733.566 1175.7 732.575 1176.17 731.542C1176.86 730.019 1177.41 729.72 1179.05 729.962C1180.17 730.126 1181.22 730.035 1181.4 729.759C1181.57 729.484 1181.26 727.544 1180.72 725.449C1180.17 723.352 1179.89 720.022 1180.08 718.039C1180.48 713.913 1178.94 707.298 1176.77 703.777C1175.97 702.488 1174.86 700.138 1174.3 698.554C1173.18 695.373 1171.16 692.667 1169.9 692.667C1169.45 692.667 1168.31 693.262 1167.38 693.989C1164.54 696.192 1160.58 696.366 1158.28 694.389C1157.8 693.978 1160.04 692.114 1161.44 691.756C1162.34 691.528 1162.04 691.376 1160.59 691.322C1157.83 691.22 1156.47 689.722 1157.13 687.526C1157.85 685.177 1160.34 682.674 1161.96 682.674C1163.06 682.674 1163.18 682.467 1162.54 681.698C1161.93 680.964 1161.96 680.541 1162.63 679.991C1163.38 679.382 1169.26 678.573 1173.99 678.428C1174.63 678.408 1175.35 677.632 1175.58 676.704C1175.92 675.355 1176.37 675.085 1177.8 675.36C1178.85 675.56 1179.6 675.372 1179.6 674.906C1179.6 674.467 1179.84 674.169 1180.13 674.242C1180.43 674.315 1182.43 674.105 1184.59 673.776C1189.9 672.965 1198.06 673.106 1200.52 674.051C1201.63 674.475 1203.3 674.823 1204.23 674.823C1205.34 674.823 1206.6 675.698 1207.84 677.327C1209.24 679.158 1210.48 679.948 1212.47 680.266C1215.38 680.731 1218.14 682.781 1218.14 684.48C1218.14 685.051 1218.77 685.908 1219.53 686.386C1220.46 686.965 1220.7 687.525 1220.25 688.064C1219.78 688.637 1220.74 689.152 1223.56 689.828L1227.54 690.783L1225.87 692.115C1221.67 695.472 1220.91 695.827 1220.23 694.752C1219.7 693.918 1219.59 693.951 1219.58 694.939C1219.56 696.709 1217.3 697.121 1214.35 695.891C1212.93 695.296 1210.96 694.809 1209.99 694.809C1208.23 694.809 1200.79 696.557 1199.71 697.228C1199.4 697.421 1197.26 700.35 1194.96 703.737C1192.49 707.364 1189.54 710.744 1187.77 711.962C1185.84 713.294 1184.36 715.058 1183.61 716.924C1182.18 720.489 1182.18 720.763 1183.53 720.243C1184.38 719.917 1184.51 720.211 1184.16 721.623C1183.57 723.989 1186.48 730.154 1188.66 731.148C1189.56 731.559 1190.3 732.384 1190.3 732.981C1190.3 733.884 1189.04 734.067 1182.81 734.067C1178.69 734.067 1175.31 733.921 1175.31 733.744ZM1183.6 708.427C1184.95 709.964 1184.84 711.49 1183.29 712.899C1181.51 714.508 1181.02 714.387 1181.02 712.338C1181.02 711.38 1180.7 710.398 1180.31 710.155C1179.92 709.912 1179.6 708.985 1179.6 708.094C1179.6 707.203 1178.66 705.054 1177.52 703.318C1176.38 701.582 1175.08 698.796 1174.64 697.126C1173.7 693.588 1171.49 691.851 1167.19 691.27L1164.25 690.872L1167.82 689.586C1169.78 688.878 1171.95 687.995 1172.64 687.622C1173.63 687.086 1173.88 687.227 1173.88 688.302C1173.88 689.049 1174.37 689.845 1174.96 690.073C1175.55 690.3 1176.41 691.298 1176.86 692.29C1177.31 693.283 1177.94 694.095 1178.26 694.095C1179.19 694.095 1178.02 691.683 1176.61 690.664C1175.3 689.719 1174.73 687.225 1176.01 688.015C1176.39 688.251 1177.57 687.875 1178.63 687.18C1180.04 686.257 1180.64 686.153 1180.85 686.793C1181.07 687.454 1181.51 687.409 1182.65 686.61C1184.22 685.511 1190.78 685.769 1193.24 687.026C1193.87 687.35 1196.6 687.691 1199.3 687.784C1204.09 687.95 1205.99 688.512 1207.99 690.347C1208.53 690.838 1209.45 691.24 1210.04 691.24C1211.58 691.24 1210.86 692.78 1209 693.468C1207.78 693.922 1207.43 693.785 1207.43 692.842C1207.43 691.872 1207.22 691.947 1206.32 693.222C1205.6 694.253 1204.47 694.809 1203.1 694.809C1200.55 694.809 1196.19 697.48 1195.56 699.432C1194.92 701.398 1189.62 708.302 1188.15 709.09C1187.21 709.594 1186.75 709.338 1186.12 707.951C1185.67 706.967 1185.31 705.898 1185.31 705.576C1185.31 704.363 1191.94 695.129 1193.41 694.298C1194.69 693.575 1194.74 693.427 1193.69 693.406C1192.36 693.379 1189.59 695.768 1189.59 696.95C1189.59 697.342 1189.27 697.664 1188.87 697.664C1187.59 697.664 1188.13 694.921 1189.95 692.242C1190.93 690.796 1191.72 689.256 1191.7 688.82C1191.69 688.384 1191.19 688.911 1190.61 689.99C1189.21 692.566 1188.34 692.47 1187.61 689.663C1187.16 687.946 1187.04 688.795 1187.1 693.054C1187.19 699.554 1186.61 701.857 1184.32 704.01L1182.7 705.534L1181.96 702.335C1181.35 699.66 1181.45 698.64 1182.59 696.098C1183.63 693.774 1183.77 692.719 1183.2 691.614C1182.48 690.244 1182.46 690.252 1182.85 691.767C1183.11 692.787 1182.6 694.464 1181.43 696.406C1180.43 698.079 1179.61 698.993 1179.6 698.437C1179.6 697.881 1179.45 697.575 1179.26 697.758C1178.8 698.219 1182.39 707.049 1183.6 708.427ZM1178.22 695.82C1178.26 694.988 1178.43 694.819 1178.66 695.388C1178.86 695.904 1178.84 696.519 1178.6 696.757C1178.36 696.994 1178.19 696.572 1178.22 695.82ZM1196.81 692.257C1195.96 691.26 1195.96 690.997 1196.81 690.461C1197.35 690.116 1198.28 689.825 1198.87 689.815C1199.46 689.805 1201.14 689.597 1202.61 689.354C1204.99 688.961 1205.29 689.079 1205.29 690.39C1205.29 692.248 1204.73 692.588 1200.89 693.051C1198.57 693.331 1197.55 693.133 1196.81 692.257Z" fill="#159888"/>
<path d="M822.639 726.108C821.826 728.411 821.161 731.356 821.161 732.653C821.161 734.652 821.654 735.012 824.39 735.012L827.618 735.012L827.556 720.857C827.489 705.296 828.261 699.132 831.159 692.114C833.934 685.396 833.507 683.893 830.599 690.139C829.244 693.049 827.607 698.301 826.96 701.811C826.314 705.32 825.466 708.192 825.077 708.192C824.688 708.192 823.638 707.075 822.744 705.711C821.22 703.384 821.244 702.985 823.127 699.294C824.231 697.129 825.135 694.5 825.135 693.453C825.135 692.405 825.805 689.943 826.625 687.982C827.444 686.02 828.083 683.843 828.045 683.142C828.006 682.442 827.642 682.716 827.236 683.753C826.588 685.403 826.227 685.18 824.325 681.958C823.132 679.934 822.103 677.298 822.039 676.1C821.944 674.302 821.842 674.239 821.455 675.74C821.196 676.739 821.88 679.645 822.975 682.196C824.777 686.399 824.942 689.734 823.565 694.115C823.291 694.986 822.267 694.384 820.547 692.34C818.543 689.958 817.767 687.64 817.178 682.272C816.757 678.436 816.14 675.026 815.807 674.693C815.474 674.36 815.201 674.664 815.201 675.368C815.201 676.381 814.847 676.363 813.506 675.285C812.268 674.289 812.421 674.921 814.074 677.631C815.319 679.671 816.18 682.353 815.989 683.591C815.663 685.698 815.532 685.64 813.942 682.684C813.008 680.947 811.31 679.23 810.171 678.868C807.073 677.885 806.569 679.174 809.6 680.326C811.042 680.874 812.221 681.712 812.221 682.187C812.221 682.662 814.009 685.817 816.195 689.198C820.411 695.722 820.799 697.21 819.105 700.375C818.206 702.055 817.801 702.16 816.471 701.056C814.069 699.063 807.624 690.06 806.848 687.614C805.939 684.751 800.347 681.372 796.518 681.372C794.839 681.372 793.215 680.967 792.909 680.472C792.603 679.977 791.571 679.775 790.615 680.023C789.66 680.271 788.001 679.83 786.929 679.044C785.271 677.827 785.178 677.375 786.305 676.016C787.035 675.137 788.1 674.419 788.673 674.419C789.246 674.419 790.574 673.636 791.624 672.68C793.313 671.143 796.266 670.443 812.221 667.805C814.133 667.489 816.235 666.799 816.892 666.272C818.241 665.19 822.276 666.169 823.381 667.848C823.832 668.533 824.117 668.271 824.126 667.161C824.14 665.505 824.312 665.485 826.349 666.912C828.909 668.705 833.081 668.973 833.081 667.344C833.081 666.542 833.444 666.529 834.372 667.3C835.082 667.889 837.551 668.673 839.858 669.042C845.07 669.876 846.105 671.268 842.106 672.067L839.079 672.673L841.295 674.385C844.448 676.821 849.345 677.577 851.546 675.967C852.971 674.925 853.118 674.33 852.216 673.244C851.308 672.149 851.494 671.584 853.09 670.587C854.655 669.61 854.965 668.714 854.452 666.655C853.575 663.14 851.12 660.512 848.714 660.512C847.378 660.512 846.957 660.037 847.362 658.984C848.087 657.094 847.217 656.804 838.681 656.093C831.324 655.479 830.101 655.074 830.101 653.252C830.101 652.601 828.872 652.008 827.37 651.934C825.867 651.86 822.068 651.376 818.926 650.858C815.785 650.341 813.215 650.178 813.214 650.497C813.214 650.815 810.919 651.064 808.115 651.05C805.31 651.037 801.399 651.589 799.423 652.277C797.448 652.966 795.171 653.536 794.363 653.544C793.556 653.552 791.26 655.347 789.263 657.532C787.052 659.95 784.742 661.505 783.359 661.505C780.599 661.505 777.455 664.167 777.455 666.504C777.455 667.445 776.789 668.768 775.976 669.443C775.162 670.118 774.711 671.018 774.974 671.442C775.555 672.383 769.426 675.403 766.875 675.434C765.808 675.447 767.268 676.756 770.356 678.555C774.378 680.9 775.862 681.348 776.451 680.395C777.475 678.739 784.566 678.511 785.128 680.116C785.522 681.244 783.813 682.284 779.13 683.767C778.139 684.081 777.604 684.784 777.941 685.328C778.311 685.927 780.566 685.299 783.637 683.742C788.246 681.407 789.1 681.275 792.773 682.332C795.001 682.973 797.942 683.802 799.308 684.173C800.98 684.628 803.646 687.653 807.466 693.428C810.586 698.146 814.958 703.446 817.18 705.206C819.403 706.966 821.878 709.677 822.681 711.23C824.342 714.441 824.642 718.552 823.148 717.629C821.887 716.849 821.883 717.748 823.135 720.088C823.822 721.371 823.673 723.177 822.639 726.108Z" fill="#159888"/>
<path d="M835.533 676.709C834.104 678.334 833.129 680.612 833.197 682.172C833.286 684.242 833.421 684.398 833.796 682.862C834.062 681.769 834.905 680.168 835.669 679.305C836.433 678.441 836.76 677.435 836.395 677.07C836.029 676.704 836.252 676.405 836.889 676.405C837.526 676.405 838.034 675.847 838.017 675.164C837.999 674.481 836.882 675.176 835.533 676.709Z" fill="#159888"/>
<path d="M830.332 672.834C829.113 673.875 828.143 675.663 828.178 676.808C828.235 678.705 828.326 678.675 829.211 676.459C829.745 675.122 830.714 673.334 831.366 672.485C832.028 671.623 831.572 671.777 830.332 672.834Z" fill="#159888"/>
<path d="M796.412 676.095C797.457 675.822 798.551 675.984 798.842 676.455C799.427 677.401 801.802 676.738 804.609 674.845C806.38 673.65 806.38 673.598 804.609 673.081C802.615 672.499 798.118 672.161 794.555 672.327C792.566 672.419 792.423 672.69 793.398 674.512C794.131 675.881 795.162 676.422 796.412 676.095Z" fill="#159888"/>
<path d="M816.852 670.197C816.577 669.514 816.351 670.073 816.351 671.439C816.351 672.804 816.577 673.363 816.852 672.68C817.128 671.997 817.128 670.88 816.852 670.197Z" fill="#159888"/>
<path d="M332.124 706.68C331.311 708.983 330.647 711.929 330.647 713.226C330.647 715.225 331.139 715.584 333.875 715.584L337.104 715.584L337.042 701.429C336.974 685.869 337.747 679.705 340.645 672.687C343.419 665.969 342.992 664.465 340.084 670.712C338.73 673.621 337.092 678.874 336.446 682.383C335.799 685.893 334.952 688.764 334.562 688.764C334.173 688.764 333.124 687.648 332.229 686.283C330.705 683.957 330.729 683.557 332.612 679.866C333.716 677.702 334.62 675.073 334.62 674.025C334.62 672.978 335.29 670.516 336.11 668.554C336.929 666.593 337.569 664.415 337.53 663.715C337.492 663.014 337.128 663.289 336.721 664.325C336.073 665.976 335.712 665.753 333.811 662.53C332.617 660.507 331.588 657.871 331.525 656.673C331.43 654.875 331.328 654.812 330.94 656.312C330.682 657.312 331.366 660.218 332.46 662.769C334.263 666.971 334.428 670.307 333.051 674.687C332.777 675.559 331.752 674.957 330.032 672.912C328.028 670.531 327.252 668.212 326.663 662.845C326.242 659.009 325.625 655.599 325.292 655.266C324.959 654.933 324.687 655.236 324.687 655.941C324.687 656.953 324.332 656.936 322.992 655.858C321.753 654.862 321.906 655.493 323.559 658.204C324.804 660.244 325.666 662.926 325.474 664.164C325.149 666.27 325.018 666.212 323.427 663.257C322.493 661.52 320.796 659.803 319.656 659.441C316.558 658.458 316.054 659.746 319.086 660.899C320.527 661.447 321.707 662.284 321.707 662.759C321.707 663.234 323.495 666.39 325.68 669.771C329.896 676.294 330.284 677.783 328.591 680.947C327.691 682.628 327.286 682.732 325.956 681.628C323.555 679.635 317.109 670.632 316.333 668.187C315.424 665.324 309.833 661.945 306.003 661.945C304.324 661.945 302.7 661.54 302.394 661.044C302.088 660.549 301.056 660.347 300.101 660.595C299.145 660.843 297.486 660.403 296.414 659.616C294.756 658.4 294.663 657.948 295.791 656.589C296.52 655.71 297.585 654.991 298.158 654.991C298.731 654.991 300.059 654.209 301.109 653.253C302.798 651.715 305.751 651.016 321.707 648.377C323.619 648.061 325.721 647.372 326.377 646.845C327.727 645.763 331.761 646.742 332.866 648.42C333.318 649.105 333.602 648.843 333.611 647.733C333.625 646.077 333.797 646.058 335.834 647.485C338.394 649.278 342.567 649.545 342.567 647.916C342.567 647.114 342.929 647.102 343.858 647.873C344.568 648.462 347.036 649.246 349.343 649.615C354.556 650.448 355.59 651.84 351.591 652.64L348.565 653.245L350.781 654.958C353.933 657.393 358.83 658.149 361.032 656.539C362.457 655.497 362.603 654.903 361.701 653.816C360.793 652.722 360.979 652.156 362.575 651.16C364.141 650.182 364.451 649.286 363.937 647.228C363.06 643.712 360.606 641.085 358.2 641.085C356.863 641.085 356.443 640.61 356.847 639.557C357.572 637.666 356.703 637.377 348.166 636.665C340.81 636.052 339.587 635.647 339.587 633.824C339.587 633.174 338.357 632.581 336.855 632.506C335.353 632.432 331.553 631.948 328.412 631.431C325.27 630.914 322.7 630.751 322.7 631.069C322.7 631.388 320.405 631.637 317.6 631.623C314.796 631.609 310.884 632.161 308.909 632.85C306.933 633.538 304.656 634.108 303.848 634.116C303.041 634.125 300.746 635.919 298.748 638.105C296.538 640.523 294.227 642.078 292.845 642.078C290.084 642.078 286.94 644.74 286.94 647.077C286.94 648.018 286.274 649.34 285.461 650.015C284.648 650.691 284.197 651.59 284.459 652.015C285.04 652.955 278.911 655.976 276.36 656.006C275.294 656.019 276.753 657.328 279.841 659.128C283.864 661.472 285.348 661.92 285.937 660.967C286.96 659.312 294.052 659.084 294.613 660.689C295.008 661.816 293.298 662.857 288.615 664.34C287.625 664.654 287.09 665.356 287.426 665.901C287.796 666.499 290.051 665.871 293.123 664.315C297.732 661.98 298.585 661.848 302.258 662.904C304.487 663.546 307.428 664.374 308.793 664.746C310.465 665.201 313.131 668.225 316.951 674C320.072 678.718 324.443 684.018 326.666 685.779C328.888 687.539 331.364 690.249 332.167 691.802C333.827 695.013 334.127 699.124 332.633 698.201C331.373 697.422 331.368 698.32 332.621 700.661C333.307 701.943 333.158 703.749 332.124 706.68Z" fill="#159888"/>
<path d="M345.019 657.282C343.589 658.906 342.615 661.185 342.682 662.745C342.771 664.815 342.907 664.971 343.281 663.435C343.547 662.342 344.39 660.741 345.155 659.877C345.919 659.013 346.245 658.008 345.88 657.642C345.515 657.277 345.737 656.978 346.374 656.978C347.012 656.978 347.519 656.419 347.502 655.736C347.485 655.053 346.367 655.749 345.019 657.282Z" fill="#159888"/>
<path d="M339.818 653.407C338.598 654.448 337.629 656.236 337.663 657.38C337.72 659.278 337.811 659.247 338.696 657.031C339.23 655.695 340.2 653.907 340.851 653.058C341.513 652.195 341.057 652.349 339.818 653.407Z" fill="#159888"/>
<path d="M305.897 656.668C306.943 656.395 308.036 656.557 308.328 657.028C308.912 657.974 311.288 657.31 314.095 655.417C315.865 654.223 315.865 654.171 314.095 653.654C312.1 653.071 307.604 652.734 304.04 652.899C302.052 652.992 301.908 653.263 302.883 655.085C303.616 656.453 304.647 656.995 305.897 656.668Z" fill="#159888"/>
<path d="M326.338 650.77C326.062 650.087 325.837 650.645 325.837 652.011C325.837 653.377 326.062 653.936 326.338 653.253C326.613 652.57 326.613 651.452 326.338 650.77Z" fill="#159888"/>
<path d="M1219.79 706.68C1218.98 708.983 1218.31 711.929 1218.31 713.226C1218.31 715.225 1218.81 715.584 1221.54 715.584L1224.77 715.584L1224.71 701.429C1224.64 685.869 1225.41 679.705 1228.31 672.687C1231.09 665.969 1230.66 664.465 1227.75 670.712C1226.4 673.621 1224.76 678.874 1224.11 682.383C1223.47 685.893 1222.62 688.764 1222.23 688.764C1221.84 688.764 1220.79 687.648 1219.9 686.283C1218.37 683.957 1218.4 683.557 1220.28 679.866C1221.38 677.702 1222.29 675.073 1222.29 674.025C1222.29 672.978 1222.96 670.516 1223.78 668.554C1224.6 666.593 1225.24 664.415 1225.2 663.715C1225.16 663.014 1224.8 663.289 1224.39 664.325C1223.74 665.976 1223.38 665.753 1221.48 662.53C1220.28 660.507 1219.26 657.871 1219.19 656.673C1219.1 654.875 1219 654.812 1218.61 656.312C1218.35 657.312 1219.03 660.218 1220.13 662.769C1221.93 666.971 1222.1 670.307 1220.72 674.687C1220.44 675.559 1219.42 674.957 1217.7 672.912C1215.7 670.531 1214.92 668.212 1214.33 662.845C1213.91 659.009 1213.29 655.599 1212.96 655.266C1212.63 654.933 1212.35 655.236 1212.35 655.941C1212.35 656.953 1212 656.936 1210.66 655.858C1209.42 654.862 1209.57 655.493 1211.23 658.204C1212.47 660.244 1213.33 662.926 1213.14 664.164C1212.82 666.27 1212.69 666.212 1211.1 663.257C1210.16 661.52 1208.46 659.803 1207.32 659.441C1204.23 658.458 1203.72 659.746 1206.75 660.899C1208.19 661.447 1209.37 662.284 1209.37 662.759C1209.37 663.234 1211.16 666.39 1213.35 669.771C1217.56 676.294 1217.95 677.783 1216.26 680.947C1215.36 682.628 1214.95 682.732 1213.62 681.628C1211.22 679.635 1204.78 670.632 1204 668.187C1203.09 665.324 1197.5 661.945 1193.67 661.945C1191.99 661.945 1190.37 661.54 1190.06 661.044C1189.76 660.549 1188.72 660.347 1187.77 660.595C1186.81 660.843 1185.15 660.403 1184.08 659.616C1182.42 658.4 1182.33 657.948 1183.46 656.589C1184.19 655.71 1185.25 654.991 1185.83 654.991C1186.4 654.991 1187.73 654.209 1188.78 653.253C1190.47 651.715 1193.42 651.016 1209.37 648.377C1211.29 648.061 1213.39 647.372 1214.04 646.845C1215.39 645.763 1219.43 646.742 1220.53 648.42C1220.99 649.105 1221.27 648.843 1221.28 647.733C1221.29 646.077 1221.46 646.058 1223.5 647.485C1226.06 649.278 1230.23 649.545 1230.23 647.916C1230.23 647.114 1230.6 647.102 1231.53 647.873C1232.24 648.462 1234.7 649.246 1237.01 649.615C1242.22 650.448 1243.26 651.84 1239.26 652.64L1236.23 653.245L1238.45 654.958C1241.6 657.393 1246.5 658.149 1248.7 656.539C1250.12 655.497 1250.27 654.903 1249.37 653.816C1248.46 652.722 1248.65 652.156 1250.24 651.16C1251.81 650.182 1252.12 649.286 1251.6 647.228C1250.73 643.712 1248.27 641.085 1245.87 641.085C1244.53 641.085 1244.11 640.61 1244.51 639.557C1245.24 637.666 1244.37 637.377 1235.83 636.665C1228.48 636.052 1227.25 635.647 1227.25 633.824C1227.25 633.174 1226.02 632.581 1224.52 632.506C1223.02 632.432 1219.22 631.948 1216.08 631.431C1212.94 630.914 1210.37 630.751 1210.37 631.069C1210.37 631.388 1208.07 631.637 1205.27 631.623C1202.46 631.609 1198.55 632.161 1196.58 632.85C1194.6 633.538 1192.32 634.108 1191.52 634.116C1190.71 634.125 1188.41 635.919 1186.42 638.105C1184.21 640.523 1181.89 642.078 1180.51 642.078C1177.75 642.078 1174.61 644.74 1174.61 647.077C1174.61 648.018 1173.94 649.34 1173.13 650.015C1172.32 650.691 1171.86 651.59 1172.13 652.015C1172.71 652.955 1166.58 655.976 1164.03 656.006C1162.96 656.019 1164.42 657.328 1167.51 659.128C1171.53 661.472 1173.02 661.92 1173.6 660.967C1174.63 659.312 1181.72 659.084 1182.28 660.689C1182.68 661.816 1180.97 662.857 1176.28 664.34C1175.29 664.654 1174.76 665.356 1175.09 665.901C1175.46 666.499 1177.72 665.871 1180.79 664.315C1185.4 661.98 1186.25 661.848 1189.93 662.904C1192.15 663.546 1195.1 664.374 1196.46 664.746C1198.13 665.201 1200.8 668.225 1204.62 674C1207.74 678.718 1212.11 684.018 1214.33 685.779C1216.56 687.539 1219.03 690.249 1219.83 691.802C1221.49 695.013 1221.79 699.124 1220.3 698.201C1219.04 697.422 1219.04 698.32 1220.29 700.661C1220.97 701.943 1220.83 703.749 1219.79 706.68Z" fill="#159888"/>
<path d="M1232.69 657.282C1231.26 658.906 1230.28 661.185 1230.35 662.745C1230.44 664.815 1230.57 664.971 1230.95 663.435C1231.21 662.342 1232.06 660.741 1232.82 659.877C1233.59 659.013 1233.91 658.008 1233.55 657.642C1233.18 657.277 1233.4 656.978 1234.04 656.978C1234.68 656.978 1235.19 656.419 1235.17 655.736C1235.15 655.053 1234.03 655.749 1232.69 657.282Z" fill="#159888"/>
<path d="M1227.49 653.407C1226.27 654.448 1225.3 656.236 1225.33 657.38C1225.39 659.278 1225.48 659.247 1226.36 657.031C1226.9 655.695 1227.87 653.907 1228.52 653.058C1229.18 652.195 1228.73 652.349 1227.49 653.407Z" fill="#159888"/>
<path d="M1193.57 656.668C1194.61 656.395 1195.7 656.557 1196 657.028C1196.58 657.974 1198.96 657.31 1201.76 655.417C1203.53 654.223 1203.53 654.171 1201.76 653.654C1199.77 653.071 1195.27 652.734 1191.71 652.899C1189.72 652.992 1189.58 653.263 1190.55 655.085C1191.28 656.453 1192.31 656.995 1193.57 656.668Z" fill="#159888"/>
<path d="M1214.01 650.77C1213.73 650.087 1213.5 650.645 1213.5 652.011C1213.5 653.377 1213.73 653.936 1214.01 653.253C1214.28 652.57 1214.28 651.452 1214.01 650.77Z" fill="#159888"/>
</svg>
