<svg width="1512" height="982" viewBox="0 0 1512 982" fill="none" xmlns="http://www.w3.org/2000/svg">
<path d="M567.501 923.25C567.697 925.788 568.314 928.381 568.006 930.848C566.001 946.843 573.809 956.529 587.869 962.346C588.079 962.431 588.374 962.487 588.486 962.655C595.915 973.252 607.536 975.327 619.003 977.724C618.919 979.729 620.853 980.486 621.61 981.957H0C1.31768 979.322 0.658842 976.49 0.686877 973.743C0.897146 954.062 1.03733 934.381 1.19152 914.714C4.61189 914.041 7.97619 913.312 11.5367 913.326C35.5494 913.424 59.5621 913.368 83.5748 913.382C85.4391 913.382 87.3876 913.214 89.1399 913.676C100.887 916.802 112.325 922.381 124.914 916.41C127.395 915.232 130.899 916.185 133.927 916.242C148.674 916.536 163.393 922.774 178.224 916.34C179.962 915.583 182.401 916.129 184.448 916.438C200.302 918.835 216.212 920.475 232.277 920.391C255.126 920.265 277.975 920.447 300.824 920.307C308.899 920.265 316.608 920.909 323.253 926.18C325.454 927.918 328.117 927.386 330.668 926.993C341.308 925.325 351.92 926.348 362.601 926.699C371.054 926.979 379.605 927.358 388.114 926.965C393.356 926.713 399.09 924.891 403.758 926.39C418.673 931.199 433.7 928.759 448.671 928.647C458.47 928.577 468.198 930.33 477.898 929.937C489.183 929.474 500.411 929.853 511.654 930.245C516.237 930.4 520.807 933.484 525.349 930.091C526.092 930.652 526.765 931.535 527.578 931.703C537.657 933.722 547.974 934.815 556.329 942.006C558.571 943.941 559.861 941.53 560.071 939.077C560.408 935.18 560.828 931.283 561.221 927.386C564.795 928.227 565.3 924.442 567.501 923.208V923.25Z" fill="#125348"/>
<path d="M845.603 981.986C849.065 974.486 855.065 970.323 863.167 970.869C872.84 971.528 880.69 969.285 887.825 962.248C892.352 957.791 898.913 955.618 905.207 953.754C908.095 952.898 910.926 951.847 913.716 950.712C917.192 949.296 917.627 947.459 913.94 945.735C911.473 944.586 910.183 942.063 913.239 941.824C920.655 941.278 916.155 936.974 916.141 933.498C920.402 934.507 925.07 939.918 927.664 931.886C931.547 939.637 931.953 939.75 937.322 933.315C941.457 928.367 947.485 925.984 952.139 921.779C960.045 921.793 967.418 926.012 975.549 924.666C978.535 924.176 981.562 924.764 984.464 925.844C991.011 928.283 997.865 928.115 1004.47 926.783C1019.96 923.671 1035.39 923.909 1050.95 925.83C1061.79 927.161 1072.61 928.675 1083.54 926.222C1086.14 925.634 1089.36 925.76 1091.79 926.783C1102.06 931.087 1112.77 930.245 1123.44 930.175C1131.4 930.119 1139.25 930.035 1146.27 934.787C1148.68 936.413 1151.73 936.091 1154.46 935.558C1167.09 933.091 1179.87 934.801 1192.52 934.885C1202.12 934.941 1212 935.222 1221.46 934.998C1237.26 934.619 1253.12 934.367 1268.9 934.633C1283.26 934.871 1297.67 935.334 1311.98 937.044C1321.15 938.138 1330.13 941.74 1339.58 939.722C1347.21 938.096 1354.73 938.979 1362.41 939.441C1368.12 939.792 1371.67 944.684 1377.36 944.263C1400.08 942.609 1422.66 946.198 1445.41 946.03C1467.18 945.861 1489.09 946.128 1510.85 948.427C1512.41 959.585 1510.15 970.855 1512 982H845.603V981.986Z" fill="#125348"/>
<path d="M1510.78 521.946C1511.62 525.535 1511.51 529.124 1510.84 532.712C1509.35 533.679 1509.52 534.633 1510.86 535.586C1510.99 537.731 1511.12 539.861 1511.24 542.006C1507.18 543.352 1509.46 544.571 1511.31 545.805C1511.19 551.664 1511.05 557.538 1510.92 563.397C1508.09 562.388 1501.07 567.463 1503.69 558.421C1503.76 558.169 1502.76 557.244 1502.31 557.286C1499.26 557.58 1495.92 558.239 1494.67 561.211C1493.69 563.538 1495.18 566.047 1497.21 567.785C1501.47 571.416 1506.24 570.42 1511.02 569.201C1510.98 571.892 1510.93 574.584 1510.89 577.261C1505.42 579.168 1499.64 574.079 1493.55 578.102C1499.07 582.181 1503.73 586.737 1511.02 584.606C1511.58 597.615 1511.49 610.638 1510.79 623.632C1499.89 620.787 1494.69 631.721 1485.87 634.034C1484.43 634.412 1484.06 636.613 1484.05 638.295C1484.02 642.234 1484.01 646.173 1483.99 650.112C1483.98 654.177 1485.93 655.074 1489.28 653.224C1491.49 652.005 1493.65 650.645 1495.67 649.117C1500.2 645.711 1505.03 643.243 1510.86 643.398C1511 645.248 1511.28 647.098 1511.28 648.949C1511.28 729.636 1511.28 810.323 1511.26 891.01C1511.26 892.86 1510.98 894.711 1510.82 896.547C1501.51 895.608 1492.09 895.299 1482.94 893.533C1476.8 892.342 1470.9 895.313 1465 893.281C1458.25 890.954 1451.3 890.856 1444.28 890.996C1431.55 891.262 1418.96 889.131 1406.23 888.683C1389.26 888.066 1372.18 887.519 1355.45 888.893C1343.07 889.916 1330.94 888.332 1318.72 888.655C1305.85 888.991 1292.7 886.019 1279.62 885.136C1268.07 884.351 1256.54 883.258 1244.94 884.59C1227.1 886.65 1209.18 885.389 1191.34 884.856C1181.72 884.562 1172.37 881.127 1162.46 880.805C1156.21 880.609 1149.79 882.964 1143.86 880.791C1135.88 877.861 1127.75 879.053 1119.68 878.324C1104.85 876.992 1090.28 881.45 1075.47 879.894C1071.09 879.431 1066.66 879.543 1062.52 881.8C1059.32 883.538 1056.54 882.221 1054.75 879.277C1052.9 876.235 1050.33 874.497 1046.83 874.286C1040.87 873.922 1035.73 871.343 1030.64 868.581C1024.67 855.152 1012.58 849.082 1000.12 843.587C998.608 842.914 995.117 843.083 994.865 843.741C992.846 849.11 986.861 848.241 983.58 851.423C980.244 854.661 976.361 855.222 971.945 854.115C967.39 852.979 963.058 852.587 958.516 855.236C954.521 857.563 949.909 856.203 945.592 855.054C941.989 854.101 943.069 852.306 944.975 850.821C949.04 847.624 953.274 844.639 957.437 841.555C958.25 841.134 959.063 840.672 959.904 840.279C961.152 839.676 962.455 839.158 963.689 838.513C968.063 836.256 969.408 833.214 966.493 832.415C962.315 831.266 960.465 835.205 957.549 836.845C954.928 836.004 952.517 836.662 950.204 837.91C948.522 838.807 946.671 839.887 945.241 837.91C943.181 835.05 940.742 835.345 937.854 836.158C935.751 836.761 933.172 836.242 932.008 834.686C927.929 829.261 924.944 829.485 921.201 835.205C918.958 838.639 914.584 837.924 910.869 837.517C909.215 837.335 908.725 836.088 908.514 834.574C908.01 831.125 914.108 818.691 917.472 818.397C926.373 817.64 933.845 812.706 942.326 810.954C944.344 812.986 945.325 811.472 946.265 809.818C947.751 809.748 949.237 809.678 950.722 809.608C953.077 811.837 954.83 810.463 956.512 808.641C959.708 808.963 962.203 807.379 964.628 805.627C966.282 805.388 966.843 804.505 966.521 802.837C965.862 799.473 968.217 799.922 970.249 800.006C970.249 801.464 970.249 802.907 970.249 804.884C971.833 802.795 971.048 801.421 970.193 800.048L971.329 797.132C972.997 796.571 973.824 795.141 974.777 793.824C976.866 790.95 981.8 787.768 978.884 784.754C976.585 782.399 973.067 787.249 970.277 789.24C969.24 789.156 968.203 789.086 967.165 789.002C967.011 788.034 966.871 787.053 966.717 786.086C966.829 784.67 966.941 783.268 967.053 781.852C969.871 778.797 967.978 777.381 965.105 777.969C962.287 778.544 958.755 777.395 957.227 778.32C953.666 780.451 948.9 777.619 946.251 781.614C943.587 784.866 939.831 787.235 938.246 791.371C938.092 791.567 937.952 791.749 937.798 791.931C934.027 791.343 930.438 792.24 926.836 793.151C926.177 792.969 925.504 792.772 924.845 792.59C921.817 789.744 916.939 788.525 916.659 783.268C916.28 777.619 923.472 777.451 924.579 772.222C918.734 772.727 916.393 769.923 917.009 764.456C917.304 761.779 915.608 761.036 913.323 760.447C909.412 759.438 905.627 758.947 901.842 760.798C897.356 762.998 894.819 761.47 893.992 756.676C897.721 752.681 900.749 746.289 907.379 748.91C910.715 750.228 913.757 750.592 917.051 750.831C917.612 751.363 918.159 751.91 918.72 752.443C919.042 756.424 922.602 757.531 925.266 758.723C929.247 760.503 928.546 757.559 927.845 755.19C928.925 754.686 930.018 754.181 931.097 753.676C931.728 753.326 932.345 752.975 932.976 752.625C936.116 752.471 938.246 754.658 940.742 756.003C943.924 763.167 950.022 759.704 955.615 760.573C948.69 752.148 948.872 751.251 958.054 746.962C959.624 746.219 961.194 745.658 960.927 743.626C960.689 741.803 959.189 740.401 957.633 740.472C951.83 740.752 946.181 733.855 940.013 740.626C938.106 742.714 933.845 742.07 930.649 740.64C929.065 739.925 927.495 738.285 925.588 740.079C924.565 740.079 923.556 740.107 922.532 740.121C920.219 738.131 918.201 738.004 916.687 741.06C915.902 741.789 915.103 742.518 914.318 743.247C911.15 742.532 907.982 741.817 904.814 741.116C903.048 740.724 901.828 739.743 901.646 737.892C901.183 733.308 909.538 725.935 914.416 726.594C922.364 727.659 923.205 726.636 920.374 719.178C919.743 717.524 917.654 715.898 919.378 714.202C921.173 712.436 923.822 712.758 925.981 713.627C927.887 714.384 929.611 715.716 931.266 716.992C934.251 719.276 936.032 719.01 935.737 714.875C935.611 713.038 935.499 711.272 937.686 711.286C939.438 711.3 941.597 711.833 942.83 712.954C943.994 714.02 942.34 715.394 941.443 716.403C939.929 718.099 939.606 720.104 939.718 722.262C939.845 724.715 940.419 726.972 942.942 727.968C943.657 728.248 945.143 728.122 945.424 727.673C946.896 725.262 942.914 724.575 943.517 722.29C949.138 719.305 949.082 725.22 951.409 727.351C952.391 728.248 952.797 730.042 954.535 729.65C956.442 729.229 956.974 727.519 956.96 725.851C956.904 721.295 958.853 716.361 953.414 712.352C955.545 712.169 956.456 712.141 957.339 712.001C963.072 711.09 968.287 714.09 970.572 717.959C972.745 721.645 965.161 720.678 964.025 724.127C963.955 724.323 963.731 724.491 963.549 724.631C957.044 729.439 963.647 732.65 965.68 735.187C967.642 737.64 971.763 737.542 974.441 734.051C976.375 731.528 977.525 728.949 977.202 725.725C976.698 720.804 980.917 718.113 983.931 718.337C991.809 718.912 999.939 720.272 1005.43 727.211C1005.52 728.164 1005.6 729.117 1005.67 730.056C1005.45 731.893 1003.49 733.659 1005.45 735.593C1005.45 736.575 1005.45 737.556 1005.46 738.537C1000.82 743.527 997.444 750.032 989.832 751.434C989.426 751.504 988.879 751.882 988.753 752.247C986.566 758.33 981.898 757.237 977.258 756.298C976.179 752.849 973.263 754.097 970.936 753.817C967.488 753.41 965.637 755.246 965.399 758.372C965.077 762.592 969.184 759.171 970.404 760.966C970.74 764.008 972.17 765.269 975.001 763.475C977.174 762.101 979.291 760.854 981.954 760.727C987.758 760.461 992.342 757.7 996.225 753.578C1001.27 748.223 1004.41 748.322 1008.29 754.84C1010.78 759.003 1011.15 754.896 1012.46 754.321C1013.27 754.321 1014.1 754.321 1014.91 754.321C1016.19 755.513 1017.74 755.302 1019.28 755.176C1021.78 755.793 1023.17 757.181 1023.71 759.872C1024.25 762.522 1027.36 764.232 1028.98 762.956C1035.76 757.657 1040.79 764.246 1046.56 765.045C1049.2 765.409 1049.44 767.498 1046.72 769.334C1043.2 771.703 1039.9 774.423 1036.71 777.198C1035.78 777.997 1034.63 779.441 1035.54 780.885C1036.39 782.217 1038.08 782.217 1039.36 781.726C1045.12 779.511 1051.83 778.376 1052.88 770.47C1053.11 768.802 1053.71 766.741 1055.66 767.204C1058.17 767.806 1057.43 770.133 1056.67 771.731C1055.42 774.395 1056.11 776.175 1058.52 777.535C1059.99 779.722 1059.99 782.231 1060.08 784.726C1057.38 786.717 1054.82 787.572 1051.16 786.562C1047.57 785.567 1043.75 786.703 1040.34 790.726C1044.47 791.104 1048.6 790.235 1050.56 791.889C1056.47 796.894 1058.34 791.679 1061.27 788.665C1069.17 787.263 1076.66 791.469 1085.03 789.772C1089 788.973 1100.46 786.114 1098.5 798.674C1098.37 799.501 1099.73 800.566 1100.39 801.52C1100.87 802.01 1101.33 802.501 1101.81 802.977C1102.62 803.833 1103.43 804.674 1104.25 805.529C1103.69 806.58 1103.81 807.533 1104.6 808.416C1105.45 814.304 1108.62 816.491 1114.38 814.5C1121.22 814.794 1127.5 817.276 1133.89 819.364C1137.22 820.444 1139.85 823.037 1139.12 825.784C1137.34 832.471 1141.84 830.593 1144.93 830.859C1148.16 831.139 1150.65 829.135 1153.41 827.971C1157.46 826.261 1158.83 824.453 1154.32 821.509C1152.5 820.318 1149.26 819.098 1150.52 816.519C1151.66 814.22 1154.71 815.818 1156.95 816.014C1157.36 816.056 1157.79 815.776 1158.31 815.607C1158.31 814.963 1158.12 814.234 1158.34 813.673C1159.2 811.514 1151.19 804.561 1161.71 807.449C1163.47 807.94 1163.43 805.599 1163.35 804.323C1162.87 797.594 1162.39 790.866 1161.71 784.151C1161.33 780.493 1155.92 779.469 1155.73 779.848C1152.65 786.226 1147.48 780.339 1143.82 782.133C1141.94 782.105 1140.08 782.063 1138.2 782.035L1134.15 782.161C1130.81 781.979 1127.52 784.263 1124.1 782.511C1123.98 780.619 1126.46 779.96 1125.67 777.465H1118.99C1126.02 768.185 1134.97 763.867 1147.06 767.442C1143.03 763.054 1137.64 764.316 1133.08 762.522C1134.67 758.288 1138.83 760.041 1142.35 758.12C1136.98 755.681 1132.66 753.718 1127.01 751.153C1131.93 749.387 1135.63 749.948 1139.24 749.765C1141.46 749.653 1144.2 750.284 1143.08 746.135C1142.15 742.714 1144.27 742.686 1146.66 743.892C1148.73 744.929 1150.74 746.065 1153.1 747.326C1154.4 745.882 1152.4 740.219 1157.44 743.415C1159.14 738.145 1163.39 742.756 1166.51 741.495C1169.36 740.345 1176.96 740.948 1174.73 749.079C1174.28 750.705 1173.73 752.961 1177.84 752.19C1180.17 751.756 1185.27 750.845 1186.69 753.999C1188.07 757.083 1184.46 759.704 1182.69 762.396C1181.47 764.232 1179.35 765.662 1179.56 768.942C1185.42 767.12 1191.05 764.961 1197.09 765.031C1195.25 770.428 1187.75 768.732 1185.45 774.451C1191.27 774.998 1197.1 774.956 1202.57 779.988C1194.33 780.885 1187.05 779.413 1180.24 781.965C1176.03 783.549 1171.04 783.492 1169.29 789.254C1166.72 797.749 1171.13 804.435 1174.25 811.5C1174.42 811.879 1175.53 812.103 1176.12 811.977C1178.65 811.402 1181.6 807.926 1183.53 810.926C1185.17 813.477 1180.29 814.935 1179.82 817.71C1179.76 818.033 1180.2 818.439 1180.67 819.308C1183.04 817.892 1185.47 816.575 1187.75 815.047C1200.16 806.776 1212.55 798.492 1224.87 790.109C1227.86 788.076 1232.44 787.235 1233 783.072C1233.6 778.502 1228.4 779.385 1226.16 777.381C1225.99 777.227 1225.78 777.086 1225.66 776.904C1219.49 768.549 1209.68 765.76 1201.21 760.924C1202.04 755.204 1208.44 756.901 1211.02 753.536C1219.36 751.055 1225.71 759.746 1234.91 758.078C1230.2 752.387 1224.32 748.392 1223.95 740.99C1223.92 740.514 1222 740.121 1220.96 739.701C1220.96 737.472 1216.89 736.462 1218.88 733.869C1220.43 731.879 1223.06 732.579 1225.29 732.706C1228.02 732.86 1230.74 732.944 1233.39 732.047C1242.98 739.701 1249.78 749.261 1251.98 761.526C1254.94 760.657 1255.36 758.919 1255.98 757.517C1259.07 750.494 1262.07 743.415 1265.1 736.35C1265.72 734.906 1265.92 732.874 1268.12 733.168C1269.99 733.406 1270.54 735.229 1271.07 736.743C1272.08 739.616 1271.14 742.14 1269.67 744.691C1268.3 747.088 1267.23 749.681 1266.25 752.275C1265.65 753.859 1266.01 756.69 1267.64 756.088C1274.48 753.55 1281.04 754.461 1287.77 756.116C1288.46 756.284 1289.87 754.994 1290.4 754.069C1295.98 744.467 1306.17 740.542 1314.52 734.36C1319.15 730.925 1323.57 727.014 1329.43 725.627C1331.53 725.921 1333.59 726.131 1334.27 723.37C1337.03 723.187 1339.79 722.991 1342.54 722.809C1344.47 724.996 1345.05 723.594 1345.45 721.716C1358.64 713.165 1374.37 708.272 1384.31 694.983C1387.41 694.997 1388.81 693.456 1388.56 690.372C1391.02 685.171 1395.66 681.961 1399.7 678.19C1401.62 678.26 1402.67 677.349 1402.77 675.4C1404.12 673.466 1405.65 671.756 1408.07 671.167C1409.99 671.265 1411.04 670.354 1411.22 668.448C1413.57 666.079 1415.95 663.752 1419.3 662.812C1419.89 662.392 1420.46 661.971 1421.05 661.551C1422.45 661.074 1423.84 660.598 1425.24 660.121C1426.63 661.761 1428.05 661.775 1429.46 660.149C1431.48 660.612 1433.49 661.144 1435.52 661.551C1446.05 663.597 1456.59 663.71 1467.11 661.495C1476.57 659.261 1481.3 653.392 1481.29 643.888C1481.29 642.5 1481.36 641.099 1481.26 639.711C1481.1 637.51 1481.94 634.692 1478.88 633.893C1476.38 633.235 1473.73 633.207 1471.92 635.66C1471.04 636.851 1469.96 637.594 1468.5 637.79C1464.25 635.001 1459.04 637.79 1454.32 635.393C1458.25 632.548 1462.01 630.01 1465.57 627.235C1467.65 625.609 1467.7 622.343 1465.07 622.917C1460.64 623.899 1455.25 624.431 1452.2 628.3C1447.76 633.935 1439.71 636.192 1434.05 631.805C1429.87 628.567 1425.94 628.454 1421.07 629.352C1417.57 629.982 1413.33 633.01 1410.36 629.197C1425.8 613.273 1448.18 615.194 1468.26 606.811C1444.31 597.447 1424.79 611.367 1403.53 613.217C1404.79 611.773 1406.91 610.259 1406.67 609.488C1404.29 601.933 1409.07 604.582 1412.58 605.031C1415.51 605.395 1419.43 606.432 1420.5 602.774C1421.51 599.325 1423.73 598.947 1426.29 597.811C1429.32 596.466 1432.39 595.681 1435.57 595.022C1436.93 594.741 1438.31 593.676 1438.29 592.176C1438.27 590.2 1436.41 590.452 1435.13 590.48C1428.38 590.578 1421.65 590.13 1414.9 591.097C1409.86 591.812 1404.69 591.587 1399.58 591.7C1398.13 591.728 1396.56 591.405 1396.28 589.751C1395.99 587.929 1397.54 587.452 1398.97 587.298C1411.69 585.924 1423.42 579.658 1436.56 580.107C1439.48 580.205 1443.33 583.191 1445.53 579.434C1447.42 576.21 1441.05 576.378 1441.94 573C1442.93 570.518 1442.79 570.07 1439.93 569.818C1432.25 569.131 1424.81 570.224 1417.66 573.182C1414.52 573.63 1411.14 574.752 1411.9 569.187C1412.09 567.715 1410.02 567.687 1408.65 567.869C1406.33 567.477 1403.4 568.402 1402.41 565.122C1401.34 561.575 1405.62 562.725 1406.36 560.762C1406.51 560.356 1406.53 559.879 1406.6 559.444C1409.96 557.874 1413.29 559.486 1416.64 559.599C1422.5 565.43 1430.34 563.299 1437.31 564.659C1437.96 564.785 1439.15 564.07 1439.5 563.439C1440.27 562.01 1438.83 561.729 1437.96 561.028C1433.79 557.622 1428.55 556.36 1423.95 553.809C1422.12 551.272 1423.52 547.613 1422.09 545.581C1418.19 540.03 1422.61 541.487 1425.23 541.221C1429.97 541.095 1434.52 540.604 1438.69 544.347C1440.75 546.211 1445.22 548.594 1447.29 545.721C1449.16 543.142 1444.85 541.095 1443.02 538.964C1442.58 538.46 1442.34 537.787 1442.02 537.184C1442.69 533.806 1444.78 534.591 1447.17 535.179C1450.25 535.936 1452.47 538.74 1455.84 538.656C1460.29 541.894 1467.42 539.259 1471.49 532.866C1472.38 532.236 1473.28 531.605 1474.18 530.974C1477.6 531.338 1478.95 528.24 1481.23 526.713C1489.61 524.932 1498.5 525.535 1506.36 521.372C1507.86 521.596 1509.35 521.806 1510.85 522.031L1510.78 521.946ZM1017.04 841.849C1018.72 843.419 1020.36 845.045 1022.12 846.545C1023.31 847.568 1024.65 847.568 1025.87 846.545C1027.01 845.592 1027.92 844.036 1027.13 842.914C1025.09 839.999 1023.55 836.214 1019.73 835.275C1017.2 834.644 1013.77 834.195 1014.27 838.877C1011.63 837.419 1008.99 835.948 1006.05 834.321C1006.05 836.466 1005.78 838.064 1006.11 839.536C1007.12 844.232 1011.73 844.442 1015.04 845.62C1017.8 846.601 1016.99 843.517 1017.07 841.877L1017.04 841.849ZM1036.12 857.367C1038.56 859.119 1041.19 860.675 1043.41 862.68C1047.49 866.366 1049.7 861.993 1052.46 860.675C1054.22 859.834 1056.43 857.773 1054.6 855.699C1052.73 853.582 1050.36 851.143 1046.77 852.419C1045.89 852.727 1045.01 853.021 1044.12 853.316C1043.93 851.493 1044.24 849.391 1041.64 848.914C1041.24 848.76 1040.82 848.76 1040.41 848.914C1039.81 846.335 1041.56 845.073 1043.32 843.938C1048.6 840.517 1046.83 835.429 1044.22 832.541C1040.37 828.294 1040 834.644 1038.29 836.13C1031.7 841.779 1031.98 844.358 1038.8 849.054C1035.78 848.76 1034.41 850.344 1034.14 853.161C1033.04 853.302 1031.19 853.274 1031.33 854.437C1031.65 856.946 1034.04 857.101 1036.09 857.395L1036.12 857.367ZM1506.31 598.05C1501.61 596.311 1497.93 591.097 1493.55 594.461C1490.97 596.438 1490.36 602.984 1492.71 605.269C1496.24 608.689 1501.33 606.783 1505.97 604.26C1503.53 602.073 1500.25 602.143 1499 599.437C1501.26 597.713 1503.36 600.517 1506.32 598.05H1506.31ZM1434.07 553.192C1440.26 556.108 1446.66 557.93 1453.66 556.36C1454.53 556.164 1455.61 556.22 1455.8 555.043C1456.04 553.585 1454.99 553.136 1453.88 552.66C1447.38 549.828 1440.84 549.996 1434.07 553.192ZM982.922 768.409C992.622 770.694 998.537 766.25 1004.05 760.713C996.925 762.087 989.16 761.667 982.922 768.409ZM1032.35 790.768C1030.57 793.487 1033.5 794.651 1032.81 796.585C1031.61 799.964 1034.07 800.889 1036.46 800.861C1039.11 800.833 1041.66 799.249 1042.32 796.697C1043.09 793.684 1040.1 793.936 1038.22 793.305C1036.3 792.646 1034.48 791.707 1032.35 790.782V790.768ZM998.748 825.504C996.21 822.42 995.369 818.481 992.902 815.523C992.061 814.514 990.954 813.07 989.496 814.094C988.809 814.584 988.725 816.112 988.599 817.191C987.716 824.607 995.131 822.785 998.748 825.504ZM1486.04 576.21C1483.42 573.084 1480.07 573.813 1477.25 572.972C1475.24 572.369 1473.35 572.747 1473.25 575.313C1473.17 577.513 1474.67 578.817 1476.77 578.789C1479.9 578.761 1483.28 579.336 1486.04 576.21ZM1007.65 815.005C1007.49 812.692 1007.31 808.991 1004.41 809.356C1001.27 809.762 1002.93 814.136 1001.69 816.561C1000.64 818.607 1002.15 820.374 1004.33 820.36C1007.62 820.346 1007.42 817.556 1007.65 814.991V815.005ZM1479.62 602.676C1482.14 600.236 1487.5 603.447 1489.21 598.61C1489.91 596.648 1487.94 595.765 1486.15 596.115C1482.39 596.83 1478.5 597.741 1476.52 601.4C1475.99 602.395 1478.05 602.577 1479.62 602.676ZM1122.16 827.256C1119.58 825.546 1117.83 824.116 1115.84 823.149C1113.88 822.182 1111.76 822.35 1110.12 824.046C1109.28 824.915 1108.91 826.093 1109.85 827.13C1111.17 828.588 1112.84 829.205 1114.82 828.798C1116.96 828.364 1119.09 827.901 1122.16 827.27V827.256ZM1006.57 775.502C1008.59 774.787 1009.98 773.61 1010.14 771.605C1010.34 769.25 1009.01 767.596 1006.86 766.993C1004.87 766.433 1003.57 767.806 1004.03 769.643C1004.54 771.661 1004.41 774.185 1006.58 775.502H1006.57ZM1470.91 577.317C1470.21 575.649 1469.1 573.939 1466.78 573.771C1464.94 573.63 1464.56 575.074 1464.66 576.518C1464.83 578.929 1466.29 580.205 1468.66 580.261C1470.28 580.303 1471.15 579.392 1470.91 577.317ZM1459.17 578.382C1460.85 578.635 1461.35 577.598 1461.46 576.434C1461.65 574.57 1461.6 572.677 1459.1 572.355C1457.88 572.201 1456.53 572.621 1456.78 573.995C1457.08 575.649 1457.25 577.668 1459.17 578.382Z" fill="#094036"/>
<path d="M1.19229 914.742C0.477373 895.636 0.309158 876.529 1.19229 857.423C8.78999 858.572 16.4998 858.376 24.0695 859.133C28.8917 859.61 33.9381 857.675 38.3958 859.848C45.601 863.366 53.8576 856.512 60.7123 862.413C60.9646 862.637 62.1141 862.161 62.6047 861.726C66.9643 857.983 72.235 859.175 77.2675 858.74C84.4026 858.124 91.033 861.109 97.8738 861.418C123.905 862.623 149.978 861.81 176.024 862.259C191.836 862.525 207.97 861.866 223.867 862.091C233.595 862.231 245.356 860.254 252.716 870.642C253.206 871.328 254.902 871.385 256.024 871.356C262.276 871.23 268.5 871.356 275.06 873.964C274.457 868.931 274.738 864.502 280.541 864.544C288.195 864.586 295.891 863.478 303.488 865.427C311.1 867.375 318.67 870.193 326.394 870.768C336.22 871.497 346.187 870.207 356.084 870.053C366.751 869.885 366.667 870.011 366.807 859.539C366.877 853.904 365.686 847.905 370.62 843.391C370.452 845.451 370.41 847.54 370.059 849.573C368.644 857.773 368.742 857.941 376.9 857.114C378.036 857.002 379.395 856.329 380.124 857.451C381.049 858.867 380.04 860.212 379.003 861.095C376.367 863.338 374.012 865.693 373.143 869.548C374.797 869.758 376.143 869.927 377.489 870.123C380.377 870.529 384.652 869.941 385.255 873.039C385.83 875.968 381.162 875.982 379.185 877.777C378.947 878.001 379.045 878.576 378.905 879.515C383.11 879.515 386.502 877.51 389.993 875.884C394.212 873.908 398.628 872.87 402.385 876.431C409.912 883.58 419.234 885.669 429.061 887.113C441.032 888.865 453.2 890.589 463.335 897.864C467.414 900.78 471.605 902.448 476.273 904.004C482.483 906.079 483.1 903.359 483.072 898.523C483.03 891.318 483.17 884.113 483.24 876.908C484.698 875.31 484.263 873.319 484.361 871.427C488.679 871.567 491.637 869.38 493.838 865.89C508.108 859.652 522.56 856.764 539.143 865.301C537.041 862.329 536.396 861.418 535.737 860.493C540.685 858.838 546.236 857.058 549.461 862.455C552.152 866.955 555.474 867.614 559.792 867.207C564.011 866.815 568.132 867.544 572.057 868.735C576.277 870.025 579.599 869.282 582.613 866.282C587.141 865.679 590.617 862.637 594.682 860.983C602.799 857.703 610.999 855.6 619.662 858.895C611.798 862.988 603.934 867.081 596.07 871.174C594.276 871.889 592.173 872.198 591.486 874.525C593.351 876.165 594.781 874.693 596.308 874.006C607.691 873.221 618.485 874.482 627.372 883.524C610.523 880.496 594.374 882.991 578.576 888.528C574.777 885.837 572.268 888.164 570.726 891.15C568.483 895.453 566.815 900.107 569.632 904.957C569.408 906.836 569.17 908.714 568.945 910.593C566.773 911.574 566.591 912.976 568.104 914.714C568.217 917.588 568.455 920.475 567.432 923.251C565.231 924.484 564.726 928.269 561.151 927.428C559.091 917.223 559.736 906.583 556.357 896.589C561.081 889.944 559.525 885.01 551.914 882.543C546.12 880.664 543.227 882.636 543.237 888.458C526.681 884.435 510.168 884.575 493.711 889.019C494.006 883.846 499.431 882.319 501.856 878.422C491.763 876.165 490.263 878.043 492.155 889.72C490.726 896.322 491.903 903.009 491.412 909.653C491.006 915.134 493.627 917.966 499.192 917.447C504.211 916.985 508.711 917.924 512.509 921.4C512.622 923.195 512.72 925.003 515.173 923.097C517.065 923.391 518.649 924.26 519.995 925.606C519.308 926.124 518.397 926.559 518.902 927.694C518.958 927.835 519.28 927.975 519.434 927.933C520.57 927.666 520.556 926.699 520.71 925.816C523.205 926.237 524.649 927.779 525.28 930.148C520.738 933.54 516.168 930.456 511.584 930.302C500.342 929.909 489.113 929.545 477.829 929.993C468.143 930.386 458.414 928.634 448.602 928.704C433.631 928.816 418.589 931.255 403.688 926.447C399.02 924.947 393.287 926.769 388.044 927.022C379.536 927.428 370.985 927.036 362.532 926.755C351.85 926.405 341.239 925.381 330.599 927.05C328.048 927.442 325.37 927.975 323.184 926.237C316.539 920.966 308.829 920.321 300.755 920.363C277.906 920.503 255.057 920.321 232.207 920.447C216.129 920.531 200.233 918.891 184.378 916.494C182.318 916.186 179.893 915.639 178.154 916.396C163.323 922.83 148.619 916.592 133.858 916.298C130.83 916.242 127.325 915.289 124.844 916.466C112.242 922.438 100.818 916.859 89.0705 913.733C87.3183 913.27 85.3698 913.438 83.5054 913.438C59.4928 913.424 35.4801 913.48 11.4674 913.382C7.90686 913.368 4.54257 914.083 1.1222 914.77L1.19229 914.742Z" fill="#0E4A40"/>
<path d="M1030.68 868.581C1035.77 871.343 1040.92 873.936 1046.87 874.286C1050.38 874.497 1052.94 876.221 1054.79 879.277C1056.59 882.221 1059.36 883.524 1062.56 881.8C1066.71 879.543 1071.14 879.431 1075.51 879.894C1090.33 881.45 1104.89 876.992 1119.72 878.324C1127.78 879.053 1135.91 877.847 1143.9 880.791C1149.83 882.977 1156.25 880.608 1162.51 880.805C1172.42 881.113 1181.77 884.562 1191.38 884.856C1209.23 885.389 1227.14 886.65 1244.99 884.59C1256.59 883.258 1268.12 884.351 1279.67 885.136C1292.76 886.019 1305.9 888.991 1318.76 888.655C1330.99 888.346 1343.11 889.916 1355.49 888.893C1372.23 887.505 1389.3 888.066 1406.28 888.683C1419.01 889.145 1431.59 891.262 1444.32 890.996C1451.33 890.856 1458.3 890.954 1465.04 893.281C1470.94 895.313 1476.84 892.341 1482.98 893.533C1492.12 895.299 1501.56 895.622 1510.87 896.547C1511.71 913.831 1511.61 931.115 1510.87 948.399C1489.11 946.114 1467.2 945.834 1445.43 946.002C1422.68 946.184 1400.1 942.596 1377.37 944.236C1371.68 944.642 1368.14 939.764 1362.43 939.414C1354.75 938.937 1347.22 938.068 1339.59 939.694C1330.15 941.713 1321.16 938.11 1311.99 937.017C1297.67 935.306 1283.26 934.858 1268.92 934.605C1253.13 934.339 1237.29 934.605 1221.48 934.97C1212.02 935.194 1202.14 934.928 1192.53 934.858C1179.89 934.774 1167.12 933.064 1154.47 935.531C1151.74 936.063 1148.68 936.386 1146.29 934.76C1139.26 930.008 1131.41 930.092 1123.45 930.148C1112.8 930.232 1102.08 931.073 1091.8 926.755C1089.38 925.732 1086.17 925.606 1083.56 926.195C1072.62 928.662 1061.79 927.148 1050.97 925.802C1035.42 923.882 1019.97 923.643 1004.48 926.755C997.88 928.087 991.026 928.241 984.479 925.816C981.563 924.737 978.55 924.134 975.564 924.639C967.433 925.984 960.074 921.765 952.154 921.751C952.182 920.84 952.21 919.915 952.238 919.004C953.64 918.975 955.056 919.004 956.163 917.91C961.644 914.055 967.111 910.172 972.606 906.331C973.615 905.63 974.597 904.93 973.84 903.584C973.167 902.392 971.835 902.28 970.756 902.589C965.863 903.948 960.579 904.313 956.513 907.901C953.121 907.873 952.448 904.411 950.233 902.981C947.64 901.299 944.262 898.594 943.603 904.789C937.687 904.789 931.842 903.023 925.828 904.747C922.66 905.659 924.146 898.972 919.969 900.276C920.796 899.014 921.525 897.668 922.464 896.491C923.445 895.243 924.623 894.136 925.702 892.958C929.193 892.664 932.683 892.37 937.898 891.935C934.225 890.491 932.206 889.692 930.51 889.033C930.02 885.935 934.099 887.828 933.748 885.178C931.744 883.426 929.431 882.557 926.796 882.585C926.782 881.646 926.753 880.693 926.739 879.753C927.202 879.641 927.679 879.529 928.141 879.417C931.225 879.235 936.566 881.337 936.902 878.408C937.547 872.941 939.44 874.945 941.977 876.151C943.196 876.726 944.15 876.403 945.033 875.394C949 870.824 954.355 876.039 958.77 873.515C959.724 872.969 960.537 874.903 960.34 876.039C959.401 881.562 962.99 882.094 966.887 881.828C971.415 881.534 970.209 883.749 968.877 885.949C967.265 888.613 965.429 891.15 963.438 894.108C967.742 894.753 970.756 890.435 974.933 893.127C972.76 895.425 969.031 895.776 967.91 898.355C978.648 903.247 986.274 897.08 994.138 891.711C996.254 890.267 998.497 889.005 1000.53 887.449C1008.51 881.309 1016.54 875.282 1026.98 874.16C1030.71 873.754 1030.46 871.076 1030.7 868.553L1030.68 868.581Z" fill="#0E4A40"/>
<path d="M370.649 843.39C365.7 847.904 366.906 853.918 366.836 859.539C366.71 870.01 366.794 869.884 356.112 870.052C346.201 870.206 336.249 871.496 326.422 870.767C318.698 870.192 311.115 867.375 303.517 865.426C295.919 863.478 288.209 864.585 280.57 864.543C274.766 864.515 274.486 868.931 275.089 873.963C268.528 871.356 262.318 871.216 256.052 871.356C254.931 871.384 253.235 871.328 252.744 870.641C245.385 860.254 233.61 862.244 223.895 862.09C207.999 861.852 191.864 862.525 176.052 862.258C150.007 861.824 123.919 862.623 97.9023 861.417C91.0475 861.095 84.4311 858.123 77.2959 858.74C72.2635 859.174 66.9928 857.983 62.6332 861.726C62.1426 862.146 61.0071 862.623 60.7408 862.412C53.886 856.511 45.6295 863.366 38.4243 859.847C33.9666 857.674 28.9202 859.609 24.098 859.132C16.5143 858.375 8.81848 858.572 1.22078 857.422C1.06658 856.273 0.80024 855.137 0.80024 853.988C0.758186 798.869 0.744169 743.737 0.758186 688.618C0.758186 687.497 1.10863 686.362 1.29087 685.24C3.63186 685.282 5.95883 685.324 8.29982 685.366C10.1922 691.969 15.6452 688.773 19.6683 689.516C21.5187 689.978 23.3831 690.427 25.2334 690.889C28.6538 694.492 31.5135 698.922 37.3309 698.95C38.8589 700.015 40.3868 701.066 41.9148 702.132C51.6292 706.085 51.8254 705.945 51.8394 695.613C51.8394 687.259 51.8394 678.904 51.8394 668.657C53.6197 672.161 52.9188 674.362 54.7832 675.526C54.7552 686.418 54.7411 697.324 54.7131 708.215C54.7131 710.627 54.7692 712.982 57.9653 713.36C60.6567 713.683 63.7406 715.841 65.8994 713.724C67.6236 712.028 65.3106 709.519 64.5677 707.43C64.4135 707.01 64.049 706.66 63.8388 706.253C63.0678 704.767 62.3949 703.071 63.6986 701.739C65.1845 700.225 66.7124 701.711 68.1002 702.356C69.3478 702.945 70.6234 703.646 71.6047 704.585C75.8521 708.678 75.5577 704.921 75.8801 702.188C77.5483 702.006 79.9594 704.206 80.7724 701.795C83.5199 693.735 85.0479 700.884 87.0384 702.132C86.7861 706.982 86.0852 712.127 93.8231 707.837C95.2949 707.024 98.3649 706.505 99.5704 708.496C100.72 710.402 98.1686 711.538 97.2014 713.024C96.2341 714.509 94.7062 715.897 95.2529 718.322C97.8883 718.701 100.636 718.897 103.285 719.528C104.715 719.864 106.958 719.864 107.042 721.967C107.112 723.859 105.178 724.448 103.748 725.149C100.762 726.593 97.7481 727.953 94.3277 729.537C103.173 735.13 105.85 745.153 114.345 750.171C124.592 756.227 131.601 766.292 140.769 773.791C143.741 776.23 147.848 777.282 149.25 781.88C150.007 784.361 153.315 785.608 156.259 785.819C164.333 786.407 169.926 791.215 174.776 796.977C176.697 799.262 178.758 801.35 181.617 801.238C191.752 800.832 201.284 802.065 210.662 806.663C216.185 809.369 218.596 806.916 218.372 800.313C218.12 792.884 217.475 785.468 216.774 778.067C216.41 774.142 215.807 773.889 209.681 773.245C210.256 774.296 210.802 775.291 211.349 776.3L211.433 776.216C202.434 774.997 193.42 774.128 184.337 775.305C182.879 775.487 180.93 777.085 180.131 774.927C179.767 773.959 181.155 772.347 181.841 770.805C179.304 770.553 177.103 770.343 174.692 770.105C180.37 760.839 188.57 757.923 199.462 759.703C196.042 755.232 190.659 758.133 188.29 753.662C190.673 752.61 192.719 751.713 194.85 750.788C192.243 746.961 186.972 747.872 184.449 744.34C185.122 743.737 185.444 743.218 185.795 743.176C188.57 742.938 191.346 742.784 194.121 742.643C196.434 742.517 198.803 743.078 197.934 738.999C196.63 732.845 200.261 735.046 202.98 736.574C205.321 737.877 207.859 741.76 209.022 735.663C212.499 737.022 215.639 731.653 216.34 732.859C218.793 737.036 223.685 730.504 225.157 735.508C231.1 730.882 229.278 736.532 229.586 738.971C229.839 741.017 229.643 743.106 229.643 745.517C230.708 745.251 231.395 745.237 231.913 744.942C235.376 742.98 239.721 744.199 241.6 745.826C243.843 747.76 240.773 751.236 238.992 753.634C237.324 755.876 235.348 757.895 235.25 760.923C234.787 761.385 234.325 761.862 233.862 762.325L233.469 762.619L233.82 762.283C234.282 761.82 234.759 761.357 235.222 760.895C244.586 757.727 253.823 755.582 261.898 763.895C269.692 761.175 276.925 763.039 283.962 766.558C285.35 771.969 291.181 769.362 292.611 769.081C299.48 767.764 296.48 771.114 295.541 773.777C293.943 778.333 288.952 780.94 288.462 786.127C288.364 786.253 288.265 786.393 288.167 786.519C288.251 786.379 288.336 786.225 288.42 786.085C294.644 784.571 300.405 779.609 307.372 783.45C306.671 783.912 305.97 784.375 305.269 784.837C300.966 785.917 296.928 787.431 293.396 791.51H303.825C304.652 791.622 305.493 791.72 306.32 791.832C306.867 792.225 307.428 792.617 307.975 793.01C309.531 793.935 311.073 794.86 312.629 795.785C312.643 796.542 312.671 797.299 312.685 798.056C311.101 797.86 309.517 797.65 307.933 797.454C304.26 795.547 300.601 795.477 296.957 797.524C290.775 798.827 284.242 799.234 279.448 804.182C277.808 804.785 276.995 805.598 278.663 807.098C278.411 810.785 278.159 814.485 277.892 818.172C276.322 818.859 275.663 819.742 277.275 821.102C277.289 825.041 277.275 828.994 277.331 832.933C277.444 843.026 278.831 845.156 288.756 844.652C297.223 844.217 304.008 847.357 310.876 851.212C311.143 852.123 311.745 853.147 312.629 852.263C313.526 851.366 312.474 850.792 311.563 850.539C311.339 849.081 311.115 847.624 310.89 846.166L311.044 841.848C313.806 843.278 316.568 844.722 319.329 846.152C319.834 846.418 320.408 846.993 320.815 846.895C321.782 846.642 321.796 845.759 321.544 844.918C321.642 841.666 321.74 838.414 321.838 835.162C322.89 834.517 323.296 833.521 323.366 832.344C325.175 827.354 326.997 833.213 328.805 832.344C329.352 835.134 329.913 837.909 330.459 840.699C328.553 843.026 328.244 845.044 331.581 846.32C332.141 848.731 333.992 849.152 336.066 849.208C337.622 851.086 341.421 851.969 338.688 855.712C337.286 857.632 338.59 859.3 340.454 858.642C345.108 856.973 348.963 859.973 353.252 860.1C354.612 860.212 355.874 860.057 356.771 858.838C362.252 856.118 364.467 848.31 360.766 844.834C361.102 842.998 361.439 841.175 361.789 839.339C363.528 838.764 364.214 837.909 362.532 836.465C362.672 835.554 362.813 834.643 362.953 833.732C365.672 832.821 365.925 831.377 363.864 829.442C363.864 828.055 363.878 826.667 363.892 825.279C364.06 824.368 364.228 823.457 364.397 822.531C367.467 821.368 367.298 819.377 365.77 817.051C366.836 811.415 367.887 805.78 368.952 800.145C370.565 799.542 371.209 798.701 369.653 797.313L371.097 790.318C373.466 790.318 375.821 790.346 378.19 790.346C378.302 791.272 378.429 792.211 378.541 793.136C378.246 794.047 377.952 794.958 377.658 795.883C375.835 796.416 375.064 797.243 376.831 798.799C376.831 800.636 376.859 802.472 376.873 804.308C376.788 805.233 376.704 806.159 376.62 807.098C375.415 808.317 375.331 809.775 375.695 811.331C375.513 813.182 375.331 815.018 375.162 816.868C374.335 817.667 374.083 818.62 374.405 819.728C373.957 823.877 373.508 828.013 373.074 832.162C372.681 833.129 372.275 834.096 371.882 835.063C369.485 836.059 369.289 837.475 371.055 839.283C370.943 840.671 370.831 842.058 370.719 843.446L370.649 843.39ZM270.883 805.668C272.888 800.229 269.902 797.846 265.346 795.996C260.959 794.215 262.43 799.023 260.51 799.907C253.669 798.168 246.828 798.337 239.904 799.5C237.703 799.865 234.619 801.561 233.974 797.299C235.362 796.949 237.296 796.304 236.918 794.902C236.119 791.902 232.614 794.51 231.016 792.659C240.927 782.608 241.348 782.468 256.851 783.884C252.646 779.384 246.492 781.235 242.189 778.347C244.403 775.249 247.992 776.791 251.524 774.73C242.399 770.974 235.067 774.632 227.736 777.38C222.704 779.272 224.47 783.954 224.035 787.655C223.713 790.403 223.559 793.164 223.334 795.926C223.138 798.925 222.732 801.925 222.788 804.925C222.942 813.798 231.941 821.424 240.548 819.98C243.548 819.476 246.38 819.7 248.048 822.307C253.277 830.466 262.444 832.316 270.112 836.563C270.659 837.419 271.164 837.559 271.598 836.493C274.57 826.148 272.804 815.915 270.897 805.682L270.883 805.668ZM241.067 766.011C245.006 766.236 247.754 766.404 250.501 766.544C251.903 766.614 254.202 768.24 254.258 765.507C254.314 763.208 253.01 760.656 250.011 761.077C247.039 761.498 244.361 762.969 241.053 766.011H241.067Z" fill="#094036"/>
<path d="M118.297 580.737C123.119 583.554 122.895 589.231 126.554 593.297C122.573 594.306 120.932 592.203 119.012 590.759C115.494 587.185 110.517 590.073 106.564 587.984C105.443 587.395 104.013 588.853 103.704 590.409C103.326 592.357 104.518 594.082 106.088 594.026C110.952 593.885 113.839 598.189 118.227 598.89C119.04 600.852 119.306 603.151 121.577 604.203C120.708 605.927 119.026 605.31 117.652 605.576C115.592 604.483 113.629 603.081 111.442 602.38C107.489 601.133 102.723 599.38 99.9757 603.6C97.1861 607.889 102.457 609.866 104.405 612.711C105.022 613.609 106.172 614.211 107.167 614.786C108.513 615.571 110.615 615.865 110.111 618.024C109.62 620.085 107.587 619.762 106.017 619.805C101.728 619.917 97.845 620.604 95.8264 625.103C97.9151 626.589 99.4711 625.524 100.859 624.935C107.798 621.977 114.568 621.178 121.451 625.286C123.203 626.337 126.035 626.505 126.371 628.678C126.806 631.537 123.638 631.341 121.9 631.958C119.208 632.897 117.064 634.103 115.802 637.369C120.19 637.383 124.647 634.916 128.04 640.201C115.536 643.116 103.2 643.495 90.9902 644.714C86.6867 643.355 82.3692 642.009 78.0657 640.649C70.9586 638.659 68.9401 646.831 63.5432 647.966C55.8053 649.607 53.8428 654.499 54.9222 661.536C53.5063 661.227 51.7821 660.583 52.0905 659.083C53.6185 651.569 48.516 650.952 43.3293 650.279C40.8061 651.205 37.568 650.84 36.3905 654.162C35.4513 654.303 34.4981 654.429 33.5589 654.569C33.1103 652.242 32.6617 649.901 32.2131 647.574C33.0402 645.738 34.8345 645.121 36.4325 644.21C37.596 643.551 37.7642 642.373 37.4979 641.196C37.2035 639.92 36.2643 639.388 34.9887 639.261C31.8767 638.953 24.3071 645.387 23.7323 648.85C22.8071 648.878 21.896 648.892 20.9708 648.92C19.583 649.368 18.1812 649.831 16.7935 650.279C11.5087 650.181 6.0277 651.12 1.38777 647.462C0.224287 642.261 0.546699 637.047 1.16349 631.832C1.71018 631.902 2.32697 632.014 2.18679 631.159C2.15876 631.033 1.52795 630.991 1.16349 630.921C0.995272 624.29 -0.0560715 617.646 1.28965 611.029C1.65411 610.735 2.00456 610.441 2.36903 610.132C2.01858 609.992 1.66813 609.852 1.31768 609.726C0.420537 605.478 0.294376 601.217 1.26161 596.969C4.75207 597.334 7.89208 597.194 8.10235 592.512C8.32664 587.367 4.87823 587.185 1.16349 587.353C1.10741 585.433 1.03733 583.498 0.981254 581.578C3.6026 580.666 7.92012 583.54 8.70512 580.008C9.2378 577.611 4.8502 576.279 2.41108 574.807C2.04661 574.583 1.54197 574.625 1.0934 574.555C0.967236 572.831 0.841075 571.12 0.728931 569.396C2.45313 569.018 3.68671 569.648 5.0885 570.784C9.30789 574.204 14.7328 573.531 19.6531 574.106C21.2371 574.288 25.1481 574.555 25.1762 571.443C25.1902 569.27 22.0922 568.723 20.1437 568.457C13.5413 567.574 6.88279 567.041 0.238305 566.382C0.154197 563.999 0.0841074 561.602 0 559.219C2.71947 557.986 4.72403 559.612 7.03699 560.691C10.3592 562.247 13.7796 564.406 17.7887 562.317C13.7375 555.224 7.97619 550.612 0.770985 547.724C0.714913 545.636 0.658842 543.547 0.60277 541.458C2.70546 541.122 4.78011 540.015 6.9669 541.066C6.68654 548.145 12.0975 548.229 16.8635 549.098C19.611 549.897 22.3445 552.645 25.0921 549.098C27.0125 549.168 29.0451 548.664 30.8534 550.079C29.6058 551.663 26.7041 551.607 27.0405 554.649C31.2459 554.775 34.2177 551.537 37.9465 550.514C43.1331 548.846 48.7543 548.019 52.3288 543.183C53.0858 542.888 53.8568 542.608 54.6138 542.314C55.5109 542.229 56.394 542.145 57.2912 542.047C58.3005 542.047 59.3098 542.047 60.305 542.047C62.3937 542.594 64.174 542.075 66.2206 541.262C72.0941 538.921 78.1218 538.697 84.0373 541.472C88.6773 542.117 91.607 546.939 96.6254 546.645C98.1534 551.215 101.251 552.519 106.045 552.575C110.363 552.617 115.269 552.434 118.69 556.303C117.358 556.85 116.026 557.397 114.695 557.943C113.181 561.883 108.765 562.653 106.27 565.233C106.522 567.223 111.232 566.298 108.933 568.597C103.536 573.952 107.994 574.793 111.765 576.293C113.924 577.779 116.096 579.251 118.255 580.737H118.297ZM9.84057 627.879C9.91066 628.706 9.96673 629.547 10.0368 630.374C10.0508 631.72 10.2191 633.037 11.9152 633.164C13.2329 633.262 13.6955 632.224 14.102 631.201C18.8541 630.178 22.0081 627.5 20.382 622.468C18.6158 617.029 14.5926 621.417 11.5928 621.304C11.0321 621.29 10.4433 621.977 9.86861 622.342C6.75663 622.202 5.13055 623.575 5.73332 626.785C6.29404 629.757 8.20048 628.51 9.84057 627.879ZM63.1787 578.606C63.8235 580.302 65.2113 581.48 66.0524 583.162C68.5335 588.138 75.7948 589.358 79.86 586.105C81.0375 585.166 81.9347 584.157 81.6403 582.601C81.3179 580.947 80.0422 580.19 78.5283 580.638C71.5474 582.713 73.5239 577.975 74.4911 574.246C69.8232 574.793 65.9683 575.368 63.1787 578.662C62.5339 578.41 61.7909 578.298 61.2583 577.891C58.8472 576.097 56.2679 575.34 53.5624 576.938C52.3709 577.639 52.427 579.293 53.6045 579.783C56.38 580.947 59.3518 581.928 61.9451 579.167C62.2395 578.858 62.7722 578.774 63.1927 578.592L63.1787 578.606ZM76.9443 614.534C71.6035 614.099 67.7065 608.058 62.9404 612.88C60.7116 615.137 60.5854 620.197 62.604 622.019C66.557 625.58 71.6315 623.085 76.6079 623.043C75.2341 618.893 70.9586 620.183 70.0755 617.113C71.9119 615.781 74.379 617.562 76.9583 614.548L76.9443 614.534ZM63.3049 595.259C67.0757 597.782 70.0475 599.857 73.1174 601.777C75.4724 603.263 77.6312 601.848 79.6638 600.838C81.43 599.955 81.4721 598.091 80.9394 596.549C80.0142 593.899 77.505 594.698 75.5425 594.6C71.7436 594.432 67.8747 593.661 63.3189 595.259H63.3049ZM39.6847 623.169C34.6943 622.216 31.3721 621.473 28.0078 620.996C26.0032 620.716 24.279 621.36 24.2229 623.87C24.1809 626.071 25.3444 627.374 27.4891 627.598C31.5683 628.019 35.0588 626.603 39.6987 623.155L39.6847 623.169ZM56.5062 593.899C54.0951 590.479 50.7869 590.591 47.6328 590.325C45.7404 590.171 43.7078 590.171 43.7078 592.82C43.7078 595.245 45.0676 596.969 47.5487 596.423C50.3663 595.792 53.5204 596.268 56.5062 593.899ZM59.9966 616.23C60.0667 613.889 59.3518 613.118 56.6884 613.454C53.3241 613.861 50.8429 616.118 47.7029 616.791C46.5535 617.043 45.3059 617.421 45.9227 619.02C46.4133 620.267 47.6188 620.618 48.7963 620.337C51.8803 619.622 54.6418 617.632 58.1463 618.571C59.4359 618.921 59.9546 617.492 59.9966 616.23ZM12.518 587.493C9.20976 588.068 9.79852 590.717 9.77048 592.932C9.74244 595.624 10.149 598.315 13.6815 598.217C14.887 598.189 16.4851 597.348 17.1719 596.367C18.1952 594.923 16.9757 593.745 15.5599 593.269C13.7375 592.652 13.5974 591.769 14.4384 590.171C15.4057 588.32 14.1721 587.703 12.518 587.507V587.493ZM90.5697 552.477C86.925 548.93 82.9299 548.131 78.5283 548.79C77.7013 548.916 76.8742 550.009 77.5751 550.949C80.4207 554.719 84.6121 553.472 88.3969 553.626C88.9296 553.654 89.4903 553.079 90.5697 552.49V552.477ZM91.9294 595.469C91.2005 593.633 89.6445 592.96 87.654 592.904C85.4251 592.834 84.0794 593.717 84.2757 596.142C84.4158 597.993 85.3971 599.338 87.2895 599.268C89.5183 599.198 91.1725 598.021 91.9294 595.455V595.469ZM37.0353 590.858C35.1008 590.97 35.0448 592.428 35.0728 593.787C35.1429 596.451 36.4606 598.105 39.2501 598.119C40.9043 598.119 41.8154 597.053 41.479 595.455C40.9743 593.072 39.6146 591.334 37.0493 590.858H37.0353ZM29.4236 589.302C27.9097 589.217 26.8583 589.82 27.0966 591.18C27.4471 593.156 27.8956 595.413 30.1805 596.086C31.6244 596.507 32.0449 595.189 32.087 593.984C32.1851 591.811 31.8206 589.862 29.4096 589.302H29.4236ZM87.3316 605.702C90.4295 607.034 92.8826 607.371 95.1816 605.45C95.8685 604.875 95.9666 603.516 94.9433 603.207C92.2098 602.394 89.7987 603.109 87.3456 605.702H87.3316ZM99.9897 640.481C97.3543 635.911 94.3545 635.505 90.8921 633.864C92.1397 638.799 95.2376 639.205 99.9897 640.481ZM88.0324 635.21C88.0745 633.612 87.5418 632.477 85.7475 632.407C84.514 632.365 83.2944 632.617 83.0841 634.019C82.7898 636.009 84.0374 637.033 85.8457 637.285C87.2895 637.495 87.8502 636.472 88.0324 635.196V635.21ZM114.582 630.346C111.554 629.14 109.438 628.72 107.658 630.893C107.377 631.243 107.461 632.463 107.756 632.631C110.209 634.047 112.101 632.897 114.582 630.346Z" fill="#094036"/>
<path d="M1.40224 647.491C6.04216 651.15 11.5232 650.21 16.8079 650.308C17.9013 656.616 14.2707 660.163 9.07003 662.532C10.3036 664.943 12.4343 664.789 14.0324 665.504C18.8125 667.663 21.56 666.906 21.0694 660.808C20.7469 656.869 20.9993 652.902 20.9853 648.935C21.9104 648.907 22.8216 648.893 23.7468 648.865C27.4195 653.967 29.424 648.108 32.2416 647.575C32.6902 649.902 33.1388 652.243 33.5873 654.57C25.7794 653.406 25.3448 653.743 25.3028 661.775C25.2467 671.475 25.2467 681.176 25.2187 690.876C23.3683 690.414 21.5039 689.965 19.6535 689.503C19.6535 686.292 19.6255 683.082 19.6395 679.858C19.6395 674.237 14.8734 674.854 11.6914 674.419C7.90655 673.915 8.53735 677.433 8.41119 679.844C8.31306 681.68 8.32708 683.517 8.28503 685.353C5.94404 685.311 3.61707 685.269 1.27608 685.227C0.71536 672.639 0.154644 660.051 1.40224 647.477V647.491Z" fill="#0E4A40"/>
<path d="M1510.89 643.397C1505.05 643.243 1500.22 645.71 1495.7 649.117C1493.68 650.631 1491.52 652.005 1489.3 653.224C1485.94 655.074 1483.99 654.163 1484.02 650.112C1484.03 646.173 1484.03 642.234 1484.08 638.295C1484.08 636.613 1484.45 634.412 1485.9 634.034C1494.72 631.721 1499.92 620.787 1510.82 623.632C1511.61 630.221 1511.41 636.809 1510.92 643.412L1510.89 643.397Z" fill="#125348"/>
<path d="M1329.38 725.556C1330.75 715.407 1328.91 705.118 1330.99 694.969C1331.74 691.297 1329.77 689.208 1325.66 689.979C1323.61 690.358 1321.55 690.792 1319.48 690.89C1308.1 691.423 1301.89 698.264 1302.08 710.025C1302.22 717.622 1302.18 725.22 1298.96 732.649C1298.96 722.43 1299.01 712.211 1298.93 701.992C1298.9 698.222 1299.18 694.983 1295.28 691.633C1290.91 687.876 1298.34 687.82 1299.26 685.283C1300.67 685.269 1302.07 685.241 1303.47 685.227C1307.14 680.966 1311.25 678.961 1317.19 680.881C1320.08 681.821 1323.56 680.923 1326.71 682.003C1328.88 682.746 1331.03 682.367 1331.28 679.48C1331.86 673.073 1332.31 666.653 1332.77 660.233C1332.98 657.317 1331.63 655.916 1328.67 656.182C1328.7 655.439 1328.74 654.696 1328.77 653.953C1329.8 653.967 1330.82 653.981 1331.86 653.995C1336.64 656.294 1338.46 649.299 1342.89 650.477C1338.99 656.308 1332.8 661.425 1336.99 669.737C1336.27 674.237 1339.02 675.695 1342.73 676.69C1347.85 678.064 1352.32 680.587 1355.2 685.311C1349.04 686.166 1345.31 680.461 1339.79 679.634C1338.15 679.396 1336.1 677.349 1334.97 679.998C1334.09 682.059 1336.06 683.307 1337.34 684.624C1337.51 684.792 1337.72 684.905 1337.87 685.073C1339.85 687.203 1345.26 686.25 1344.53 689.951C1343.67 694.339 1339.43 690.736 1336.76 691.325C1335.46 691.619 1334.48 692.418 1334.62 693.652C1335.74 703.548 1330.95 713.361 1334.21 723.272C1333.54 726.033 1331.48 725.823 1329.38 725.528V725.556ZM1305.54 694.058C1304.86 693.399 1304.48 692.755 1304.04 692.698C1303.05 692.572 1302.35 693.259 1302.38 694.226C1302.38 694.703 1303.22 695.614 1303.33 695.558C1304.03 695.25 1304.65 694.703 1305.54 694.044V694.058Z" fill="#0E4A40"/>
<path d="M1430.53 531.506C1430.57 531.184 1430.61 530.861 1430.67 530.539C1430.25 528.535 1429.83 526.544 1429.41 524.553C1432.63 523.656 1435.44 524.175 1436.49 518.596C1437.72 512.092 1458.35 510.83 1462.69 516.311C1464.45 518.54 1464.52 520.026 1461.13 521.371C1455.13 523.74 1448.99 524.273 1442.72 524.497C1440.93 524.567 1438.53 524.203 1438.03 526.502C1437.44 529.193 1439.92 529.838 1441.83 530.693C1447.76 533.315 1453.8 533.455 1459.94 531.576C1460.99 535.235 1454.49 534.492 1455.97 538.389L1455.78 538.571C1452.4 538.655 1450.18 535.852 1447.1 535.095C1444.71 534.506 1442.63 533.721 1441.95 537.099C1438.34 534.843 1435.08 531.857 1430.53 531.506Z" fill="#0E4A40"/>
<path d="M1467.06 661.424C1467.76 653.532 1465.5 645.486 1468.43 637.72C1469.89 637.51 1470.98 636.781 1471.85 635.589C1473.66 633.136 1476.31 633.164 1478.81 633.823C1481.88 634.636 1481.04 637.44 1481.19 639.641C1481.29 641.028 1481.22 642.416 1481.22 643.818C1481.23 653.331 1476.5 659.2 1467.05 661.424H1467.06Z" fill="#125348"/>
<path d="M593.926 835.331C596.323 835.134 598.874 832.373 601.005 834.714C603.36 837.307 600.893 839.956 599.631 842.241C594.851 850.848 586.342 856.862 582.683 866.296C579.655 869.31 576.333 870.039 572.114 868.749C568.189 867.544 564.054 866.829 559.848 867.221C555.531 867.628 552.208 866.969 549.517 862.469C546.279 857.058 540.728 858.853 535.793 860.493C533.102 859.105 530.397 857.703 527.691 856.315C527.285 852.292 523.612 853.175 521.299 852.362C518.79 851.479 516.309 851.115 516.617 847.652C519.855 847.47 523.107 847.288 526.345 847.106C518.79 842.788 511.823 836.564 502.711 842.129C500.552 840.601 505.501 838.232 502.319 837.279C500.538 836.746 500.062 838.975 499.823 840.573C495.744 843.125 494.272 846.825 494.385 851.577C494.497 856.343 494.076 861.123 493.88 865.904C491.693 869.394 488.721 871.581 484.404 871.441C483.549 870.067 482.708 868.693 481.853 867.319C480.507 862.273 480.254 857.1 480.156 851.928C480.198 851.059 480.226 850.176 480.269 849.292C480.297 848.269 480.325 847.246 480.353 846.236C483.016 838.134 480.745 834.91 471.591 833.789C469.461 832.933 467.414 831.728 465.199 831.307C461.092 830.536 462.284 832.723 463.559 834.756C461.821 837.125 463.573 838.765 464.751 840.545C457.475 841.064 450.733 837.826 443.486 837.672C430.253 837.377 417.146 838.036 403.478 841.919C405.511 835.709 410.936 833.508 413.922 828.966C409.674 827.887 406.254 828.364 402.806 828.756C400.394 829.022 396.876 830.607 395.839 828.083C394.689 825.294 398.53 824.411 400.437 822.939C401.348 822.238 402.343 821.453 403.408 821.158C407.838 819.925 405.09 817.514 404.46 815.439C407.277 813.897 410.081 812.369 412.898 810.827C427.477 806.005 442 805.066 456.466 812.145C447.425 802.529 436.21 800.104 424.043 800.468C422.627 800.356 421.211 800.258 419.795 800.146C419.753 799.164 419.725 798.197 419.683 797.216C425.879 792.239 433.547 792.085 442.308 791.3C432.299 784.824 421.94 782.595 412.576 777.591C424.141 770.329 435.678 772.124 449.023 777.591C445.112 770.021 442.392 764.75 439.673 759.48C442.434 756.83 444.887 759.017 447.326 760.054C453.522 762.676 458.653 767.049 463.966 771.591C465.396 767.722 463.195 764.905 463.587 761.919C463.783 760.405 462.844 758.33 464.765 757.559C466.601 756.83 467.596 758.723 468.69 759.816C470.134 761.26 471.409 762.9 473.274 765.045C475.811 759.774 473.26 754.531 476.049 749.933C480.899 753.76 481.334 759.83 485.063 764.975C486.394 759.914 487.46 755.821 488.749 750.957C493.417 755.204 492.324 760.685 494.805 765.227C498.688 761.386 497.735 755.064 502.571 751.055C507.085 760.909 504.057 771.03 505.515 781.053C510.533 779.82 512.061 774.367 517.108 772.544C516.743 781.474 521.005 780.591 526.528 777.296C528.392 776.189 530.537 776.091 532.415 777.633C530.312 788.931 522.518 796.908 515.986 805.613C513.925 808.36 511.893 811.136 510.197 814.682C523.5 808.472 536.48 801.533 553.891 805.795C546.335 809.327 540.489 811.879 534.854 814.822C532.948 815.818 529.093 815.818 530.312 819.588C531.21 822.364 540.111 824.803 542.256 823.205C545.76 820.607 548.98 820.378 551.914 822.518C552.208 822.21 552.629 821.957 552.769 821.593C553.947 818.537 551.031 813.294 554.956 812.551C557.886 811.991 558.138 817.514 559.68 820.275C560.339 821.439 560.942 822.616 561.965 824.523C563.044 820.247 563.899 816.841 564.923 812.762C569.212 816.028 567.81 820.864 570.446 823.752C573.333 820.794 572.661 815.748 577.16 812.706C577.987 817.29 578.716 821.271 579.431 825.238C579.137 829.92 578.828 834.616 578.534 839.298C578.8 840.279 579.109 839.97 579.431 839.312C582.557 836.592 583.328 831.644 587.968 830.368C588.585 830.452 589.216 830.536 589.832 830.621C589.776 831.644 589.72 832.653 589.664 833.676C589.44 835.204 587.646 837.307 589.061 838.106C591.318 839.396 592.44 836.62 593.912 835.345L593.926 835.331ZM515.089 828.167C518.958 826.934 521.327 826.205 523.682 825.42C525.042 824.971 526.514 824.341 525.869 822.56C525.238 820.836 523.654 821.074 522.364 821.691C519.925 822.869 517.374 824.004 515.089 828.167Z" fill="#094036"/>
<path d="M378.147 790.29C375.778 790.29 373.423 790.262 371.054 790.262C371.208 778.754 375.274 767.918 376.759 756.633C377.222 755.077 377.713 753.535 378.147 751.979C380.404 743.947 382.703 735.929 384.82 727.855C385.395 725.654 385.885 723.088 383.572 721.448C381.217 719.78 379.661 722.037 378.091 723.13C374.853 725.387 371.839 727.939 368.699 730.322C367.508 731.233 366.372 733.279 364.676 731.864C363.26 730.686 364.27 728.836 364.774 727.308C366.092 723.327 369.092 720.341 371.923 716.29C362.854 716.584 355.326 720.565 347.168 720.341C354.499 709.505 365.377 706.393 378.035 706.673C372.47 703.884 367.031 702.034 361.648 700.001C360.274 699.482 357.821 699.707 357.933 697.576C358.06 695.123 360.471 695.347 362.265 695.137C369.386 694.282 376.255 695.669 384.217 699.174C381.315 693.623 379.591 689.614 376.255 686.572C376.872 684.497 376.409 682.717 374.769 681.273C374.895 680.698 375.021 680.11 375.161 679.535C376.9 679.731 378.638 679.927 380.376 680.124C384.231 683.376 388.086 686.628 391.562 689.558C391.871 685.408 388.254 680.488 390.637 675.315C391.829 677.474 394.296 677.306 396.104 678.329C398.459 684.315 401.137 690.132 400.38 696.959C399.861 701.669 403.225 699.735 405.51 699.132C416.837 696.16 427.448 697.001 436.742 704.935C434.051 706.099 430.897 704.29 428.317 706.197C421.392 705.959 414.51 706.127 406.463 708.51C415.365 710.781 421.631 714.93 425.724 721.855C426.888 723.831 427.658 726.074 428.331 728.289C428.71 729.565 428.836 731.275 427.448 732.088C425.92 732.985 424.911 731.555 423.888 730.672C418.967 726.383 414.173 721.911 408.033 719.374C405.805 718.449 403.197 716.122 401.095 718.813C399.272 721.126 398.277 724.014 400.282 727.21C403.996 733.153 404.893 739.826 404.375 746.723C404.277 748.096 404.221 749.554 401.669 750.325C398.571 742.601 395.431 734.779 392.291 726.957C391.703 726.943 391.114 726.929 390.525 726.915C386.768 741.27 384.105 755.862 382.423 770.665C382.311 771.59 382.198 772.516 382.086 773.441C380.6 775.095 380.769 777.085 381.021 779.076C380.923 780.001 380.839 780.926 380.741 781.866C379.829 782.637 379.591 783.59 379.956 784.711C379.745 786.561 379.535 788.412 379.325 790.248C378.918 790.262 378.512 790.276 378.105 790.304L378.147 790.29Z" fill="#0E4A40"/>
<path d="M1355.2 685.338C1352.34 680.614 1347.86 678.091 1342.73 676.717C1339.02 675.722 1336.27 674.264 1336.99 669.765C1345.27 664.69 1354.84 662.672 1363.56 658.578C1367.29 656.826 1366.59 655.172 1364.92 652.803C1363.23 650.42 1360.55 650.434 1358.01 650.21C1356.61 646.747 1355.21 646.761 1353.81 650.21C1350.18 650.308 1346.55 650.406 1342.9 650.504C1338.47 649.312 1336.65 656.321 1331.87 654.022C1332.23 649.425 1326.6 645.64 1321.19 647.028C1319.74 647.392 1317.47 647.378 1317.26 649.312C1317.04 651.401 1319.21 651.527 1320.71 651.934C1323.39 652.663 1326.09 653.308 1328.79 653.98C1328.76 654.723 1328.72 655.466 1328.69 656.209C1320.8 657.779 1312.62 656.63 1304.8 658.732C1304.24 655.606 1301.77 655.004 1299.22 654.513C1298.32 653.882 1297.44 653.237 1296.54 652.607C1296.36 650.055 1296.4 647.336 1292.68 647.434C1292.04 647.224 1291.41 647 1290.78 646.789C1290.03 644.911 1288.62 644.785 1286.97 645.373C1282.99 643.93 1280.41 648.093 1276.75 647.911C1275.35 647.224 1273.43 647.392 1272.7 645.486C1273.74 643.565 1276.01 644.252 1277.51 643.299C1279.43 642.093 1282.72 642.121 1283.02 639.57C1283.35 636.612 1280.07 637.439 1278.32 636.668C1276.12 635.701 1276.43 634.355 1277.72 632.855C1280.72 629.351 1284.62 630.052 1287.97 633.654C1290.84 636.738 1295.94 637.706 1299.24 636.963C1302.17 636.304 1300.55 630.907 1300.74 627.599C1300.88 625.23 1299 625.118 1297.3 625.79C1295.06 626.688 1292.8 627.136 1290.49 626.365C1286.2 624.949 1281.42 625.384 1279.2 619.174C1278.08 616.034 1273.26 612.852 1268.2 612.936C1265.14 612.978 1263.28 610.427 1263.48 607.861C1263.73 604.623 1266.74 606.446 1268.58 606.348C1270.18 606.249 1271.8 606.474 1273.4 606.6C1276.85 606.866 1281.15 609.179 1283.3 605.268C1285.12 601.932 1279.36 595.568 1275 594.306C1269.25 592.638 1263.94 589.484 1257.64 589.764C1256.09 589.834 1255.12 588.405 1255.29 586.849C1255.65 583.709 1257.1 579.868 1259.9 579.657C1266.74 579.125 1271.28 573.195 1278.64 573.167C1282.08 573.153 1286.26 569.551 1290.77 568.724C1293.61 568.205 1291.78 565.934 1290.57 564.476C1289.61 563.313 1289.17 561.995 1290.18 560.663C1291.47 558.995 1293.11 559.43 1294.54 560.369C1299.1 563.369 1304.76 560.565 1309.52 563.523C1311.68 564.855 1313.17 561.294 1315.03 560.06C1317.39 558.504 1320.43 558.07 1322.01 560.285C1323.75 562.696 1320.19 563.369 1319.03 564.841C1318.47 565.541 1317.49 565.892 1316.84 566.551C1314.67 568.752 1308.22 568.611 1310 571.681C1311.73 574.653 1317.44 578.999 1321.31 577.078C1329.75 572.887 1338.5 575.592 1346.9 573.896C1349.91 576.181 1353.88 577.246 1352.9 582.966C1352.57 584.844 1355.2 590.563 1360.89 589.176C1363.28 588.601 1366.35 588.979 1365.76 592.989C1365.4 595.54 1367.29 595.428 1368.82 595.75C1371.46 596.311 1371.95 598.203 1371.83 600.488C1369.62 600.6 1366.35 598.133 1365.44 601.582C1363.61 608.562 1366.94 613.427 1374.44 616.006C1376.43 616.16 1378.42 616.314 1380.43 616.469C1381.76 617.127 1381.73 618.347 1381.7 619.552C1376.64 623.267 1371.58 626.968 1366.52 630.683C1361.99 626.407 1355.94 628.314 1350.68 627.024C1346.81 626.071 1348.28 630.542 1347.75 632.589C1347.05 635.253 1348.23 636.206 1351.23 635.575C1355.7 634.636 1360.31 634.313 1364.87 633.739C1364.78 635.631 1365.34 637.313 1366.51 638.799C1366.63 639.794 1366.48 641.154 1367.98 640.958C1368.43 640.902 1368.74 639.682 1369.11 638.981C1370.49 638.939 1371.86 638.897 1373.24 638.855C1375.97 642.233 1379.59 642.107 1383.41 641.603C1388.87 640.888 1392.26 643.046 1392.97 648.794C1393.17 650.364 1393.34 652.172 1394.19 653.392C1396.87 657.176 1394.57 659.335 1392.03 661.62C1390.55 662.966 1387.81 662.728 1387.31 665.321C1386.38 665.475 1385.47 665.629 1384.55 665.769C1383.02 664.101 1382.22 664.914 1381.7 666.625C1377.5 666.947 1373.81 668.363 1370.9 671.531C1368.62 671.264 1366.66 671.475 1366.4 674.376C1364.66 675.806 1364.8 677.755 1364.92 679.717C1362.69 682.002 1361.26 685.296 1357.47 685.591C1356.68 685.507 1355.9 685.437 1355.11 685.352L1355.2 685.338ZM1290.68 592.175C1287.61 592.246 1284.25 594.026 1284.5 598.007C1284.71 601.371 1285.32 606.768 1289.4 606.978C1293.42 607.203 1296.28 602.465 1297.48 598.946C1298.82 595.077 1295.76 592.582 1290.7 592.175H1290.68ZM1331.04 632.94C1329.79 631.804 1329.33 631.005 1328.84 630.991C1320.98 630.739 1313.44 629.575 1306.97 624.501C1305.95 623.702 1304.59 624.417 1304.11 625.566C1303.48 627.066 1303.24 628.804 1304.17 630.248C1306.86 634.453 1318.45 637.902 1323.01 635.533C1325.29 634.341 1327.57 633.458 1331.04 632.926V632.94ZM1286.24 588.082C1290.04 586.134 1296.91 589.778 1297.48 582.139C1297.62 580.288 1296.56 577.288 1294.02 578.045C1289.61 579.377 1285.86 582.349 1283.41 586.26C1282.58 587.578 1284.76 588.194 1286.24 588.068V588.082ZM1327.93 615.501C1326.02 615.585 1323.77 615.684 1324.3 617.828C1325.32 621.921 1327.19 625.664 1332.22 626.281C1334.86 626.603 1335.5 625.104 1335.44 623.001C1335.3 618.01 1331.49 616.721 1327.93 615.501ZM1343.56 634.874C1344.14 631.454 1344.5 628.314 1345.21 625.258C1346.1 621.529 1342.8 621.753 1341.09 621.122C1338.84 620.295 1337.57 622.118 1337.74 624.262C1338.07 628.468 1337.83 633.122 1343.56 634.874ZM1354.19 605.128C1350.92 601.722 1347.16 599.927 1342.99 599.016C1341.67 598.736 1340.01 598.161 1339.55 599.955C1339.1 601.722 1340.87 602.198 1342.12 602.493C1346.11 603.46 1350.15 604.259 1354.17 605.114L1354.19 605.128ZM1341.99 593.942C1343.63 593.661 1346.71 593.998 1347.5 591.082C1348.05 589.035 1345.38 588.447 1344.18 588.979C1341.91 589.989 1338.14 587.648 1337.38 591.39C1336.89 593.788 1339.28 593.998 1341.99 593.942ZM1335.23 589.33C1335.07 586.554 1333.45 585.881 1331 585.98C1329.04 586.064 1327.55 586.961 1327.92 588.797C1328.41 591.208 1329.53 594.026 1332.42 594.11C1335.42 594.194 1333.86 590.704 1335.22 589.33H1335.23Z" fill="#094036"/>
<path d="M1429.41 524.554C1429.83 526.545 1430.25 528.549 1430.67 530.54C1428.35 528.998 1426.04 527.442 1423.73 525.9C1423.76 525.381 1423.79 524.862 1423.81 524.344C1425.68 524.414 1427.54 524.484 1429.41 524.554Z" fill="#094036"/>
<path d="M321.656 832.19C320.716 818.691 319.777 805.192 318.852 791.692C318.824 790.263 318.796 788.847 318.768 787.417C318.866 775.165 317.478 763.054 315.193 750.578C310.862 756.69 307.287 763.082 304.946 770.147C302.129 770.287 302.731 768.044 302.367 766.46C303.615 760.657 303.53 754.419 308.212 749.765C310.315 747.676 308.829 745.321 307.848 743.345C306.446 740.513 304.147 742.406 302.395 742.924C297.727 744.326 293.353 746.415 289.863 749.961C286.008 750.228 284.901 753.227 284.424 756.157C283.863 759.549 284.06 763.054 283.933 766.516C276.896 762.998 269.649 761.133 261.869 763.853C264.21 758.218 271.051 754.531 276.967 757.825C281.536 760.362 281.354 757.04 281.691 755.526C284.032 744.536 290.606 737.457 301.708 733.757C295.05 729.187 287.438 730.911 279.644 728.528C290.606 720.678 300.433 723.678 310.581 727.757C310.792 721.659 311.044 716.01 315.039 711.594C316.525 709.954 318.081 707.123 320.59 708.356C323.156 709.604 320.758 712.015 320.506 713.907C320.338 715.211 319.903 716.486 319.441 718.407C324.277 717.58 326.73 712.253 331.636 713.641C332.449 715.8 329.996 716.879 330.094 718.729C327.795 720.397 324.894 722.668 325.763 725.234C326.814 728.374 330.193 725.514 332.548 725.836C337.244 726.481 342.472 724.715 346.678 729.131C341.337 732.327 334.959 731.037 329.87 734.752C339.122 737.555 348.934 738.565 351.57 749.779C346.033 747.816 340.496 745.868 333.669 743.457C335.505 748.265 336.837 751.756 338.155 755.232C337.944 756.353 337.734 757.489 337.524 758.61C333.963 755.26 330.417 751.882 326.814 748.587C325.412 747.298 323.73 746.134 321.824 747.41C320.212 748.489 320.702 750.27 320.969 751.882C321.6 755.779 322.174 759.69 322.763 763.601C322.286 764.722 322.553 765.661 323.492 766.432C323.744 769.222 323.983 772.011 324.221 774.801C323.716 775.894 323.913 776.848 324.796 777.661C324.88 782.833 324.599 788.034 326.436 793.024C326.688 806.131 329.267 819.112 328.805 832.26C326.996 833.129 325.188 827.256 323.366 832.26C322.805 832.232 322.244 832.204 321.67 832.19H321.656Z" fill="#0E4A40"/>
<path d="M75.8665 702.188C76.6655 683.993 77.4925 665.784 78.2495 647.588C78.3476 645.289 78.1514 642.977 78.0953 640.664C82.3988 642.023 86.7163 643.383 91.0198 644.729C90.6834 663.933 89.2255 683.068 87.0247 702.146C85.0342 700.899 83.5062 693.735 80.7587 701.81C79.9457 704.207 77.5346 702.006 75.8665 702.202V702.188Z" fill="#125348"/>
<path d="M54.9514 661.536C56.6756 666.218 56.8018 670.886 54.7552 675.526C52.8908 674.363 53.5917 672.162 51.8114 668.658C51.8114 678.905 51.8114 687.259 51.8114 695.614C51.8114 705.945 51.6011 706.071 41.8867 702.132C42.4054 684.848 40.9756 667.522 43.3586 650.294C48.5452 650.953 53.6477 651.57 52.1198 659.097C51.8114 660.597 53.5356 661.242 54.9514 661.55V661.536Z" fill="#125348"/>
<path d="M37.3023 698.937C37.4425 685.76 37.5827 672.597 37.7369 659.42C37.7509 657.542 37.6387 655.719 36.4192 654.163C37.5967 650.841 40.8488 651.206 43.3721 650.28C40.989 667.508 42.4188 684.835 41.9002 702.119C40.3722 701.053 38.8443 700.002 37.3163 698.937H37.3023Z" fill="#0E4A40"/>
<path d="M8.27112 685.367C8.31317 683.531 8.28513 681.695 8.39728 679.858C8.53746 677.447 7.90665 673.929 11.6775 674.433C14.8595 674.868 19.6396 674.237 19.6256 679.872C19.6256 683.083 19.6256 686.293 19.6396 689.517C15.6165 688.774 10.1495 691.97 8.27112 685.367Z" fill="#125348"/>
<path d="M20.9858 648.948C20.9858 652.901 20.7475 656.883 21.0699 660.822C21.5745 666.933 18.813 667.676 14.0329 665.518C12.4349 664.789 10.3041 664.957 9.07056 662.546C14.2712 660.177 17.9018 656.63 16.8084 650.322C18.1962 649.874 19.598 649.411 20.9858 648.962V648.948Z" fill="#125348"/>
<path d="M25.3451 530.118C26.2282 530.342 27.1254 530.567 28.0085 530.791C29.5645 531.772 31.3167 532.543 32.6484 533.763C35.1436 536.062 35.7744 538.347 31.2186 538.276C28.4711 538.234 27.2656 540.463 25.1769 541.276C22.3873 540.912 19.5978 540.716 16.8643 541.697C13.5561 541.501 10.2478 541.318 6.95363 541.122C6.53309 538.837 6.11255 536.552 5.69202 534.267C10.0095 535.837 12.1683 532.711 14.6214 530.202C15.3924 529.992 16.1634 529.796 16.9344 529.585C19.738 529.768 22.5556 529.936 25.3732 530.118H25.3451Z" fill="#094036"/>
<path d="M1387.38 665.294C1387.89 662.7 1390.62 662.953 1392.11 661.607C1394.64 659.322 1396.93 657.149 1394.27 653.378C1393.41 652.159 1393.23 650.35 1393.05 648.78C1392.33 643.033 1388.95 640.874 1383.49 641.589C1379.67 642.094 1376.04 642.22 1373.31 638.842C1377.6 638.519 1381.97 637.538 1386.16 638.043C1391.25 638.66 1396.49 640.202 1395.7 647.393C1395.48 649.257 1396.07 650.869 1397.43 652.439C1402.79 658.677 1401.99 661.341 1394.17 664.088C1391.99 664.845 1389.82 665.826 1387.41 665.294H1387.38Z" fill="#0E4A40"/>
<path d="M1299.22 654.499C1301.77 655.004 1304.24 655.593 1304.8 658.719C1302.22 661.859 1309.15 662.756 1306.6 665.531C1301.09 671.503 1303.99 678.596 1303.48 685.241C1302.08 685.255 1300.68 685.283 1299.28 685.297C1299.28 681.82 1299.05 678.316 1299.29 674.853C1299.71 668.966 1299.24 663.975 1291.51 663.933C1290.31 663.933 1289.03 663.162 1289.09 661.915C1289.17 660.008 1290.97 660.247 1292.27 660.121C1295.84 659.784 1299.53 659.63 1299.21 654.499H1299.22Z" fill="#125348"/>
<path d="M128.754 718.869C128.46 717.327 127.507 716.388 126.077 715.87C126.007 713.851 125.656 712.043 123.077 711.945H112.031C119.278 710.024 113.489 704.291 117.68 702.104C120.946 703.954 138.441 706.814 142.029 705.777C143.501 705.356 145.982 705.58 145.87 702.959C136.731 700.282 127.591 698.305 118.073 699.132C116.18 696.847 115.003 693.918 112.045 692.6C110.489 691.913 107.77 691.899 108.47 689.348C109.101 687.063 111.596 688.114 113.307 687.932C114.218 687.834 115.157 687.96 116.082 687.988C117.47 688.016 118.844 688.1 120.231 688.086C123.904 688.03 127.24 686.236 126.806 682.661C126.301 678.372 122.53 679.759 119.601 680.601C118.507 680.909 117.33 680.951 116.194 681.105C112.844 680.18 109.508 679.157 106.129 678.344C104.195 677.867 102.401 677.292 102.317 674.993C102.247 672.835 103.774 671.587 105.583 670.914C109.059 669.639 113.18 669.33 116.026 667.241C122.418 662.545 129.147 659.714 137.095 659.504C138.441 659.476 139.983 658.55 140.838 659.938C141.777 661.452 140.375 662.377 139.268 663.288C137.964 664.354 135.076 664.788 136.422 667.185C137.754 669.554 140.529 670.424 143.151 669.723C146.557 668.811 149.879 668.167 153.44 668.489C157.057 668.811 160.491 668.924 161.262 673.606C161.556 675.344 163.238 676.129 164.808 676.662C169.476 678.246 172.028 680.278 169.659 686.068C168.005 690.105 170.598 693.175 175.28 693.679C176.597 693.819 178.392 693.595 178.476 695.502C178.532 696.707 177.354 697.646 176.163 697.759C172.827 698.081 172.07 703.281 167.962 701.978C165.075 699.3 160.197 702.328 158.262 699.721C155.501 695.992 151.057 696.987 148.113 694.464C147.23 693.707 145.898 693.595 144.987 694.661C144.09 695.712 144.3 697.352 145.225 697.73C150.328 699.777 152.977 706.604 159.972 705.048C162.664 704.445 165.509 705.006 168.103 706.239C169.995 707.221 172.014 707.809 174.144 707.529C181.055 706.632 186.074 707.711 188.625 715.771C189.943 719.949 189.34 721.295 186.046 722.458C183.424 723.383 180.579 723.622 177.957 724.547C173.514 726.117 169.084 727.911 169.49 733.911C169.799 738.452 167.78 738.312 164.43 736.84C160.617 735.158 156.608 733.953 152.669 732.537C152.108 730.252 148.898 728.514 151.267 725.626C156.117 723.523 160.968 721.435 165.79 719.29C166.953 718.771 168.902 718.645 168.313 716.711C167.878 715.267 166.308 714.846 164.864 714.846C161.388 714.846 157.912 714.944 154.435 715.015C150.468 714.902 146.739 713.893 143.123 712.239C141.875 711.664 140.221 711.65 139.38 713.024C138.413 714.58 139.492 715.575 140.894 716.192C142.071 716.711 142.576 717.692 142.828 718.855C139.282 719.024 135.735 719.206 132.203 719.374C131.067 719.206 129.918 719.038 128.782 718.869H128.754ZM152.697 681.077C154.547 680.993 157.617 680.741 157.197 679.031C156.215 675.092 151.323 677.054 148.702 674.853C147.707 674.026 145.898 675.554 146.249 677.152C146.992 680.502 149.767 681.035 152.697 681.077ZM119.727 676.325C121.9 676.031 123.652 675.764 125.404 675.568C127.395 675.344 129.68 675.764 130.703 673.395C130.871 673.017 130.296 671.853 129.932 671.783C127.577 671.349 125.25 669.33 122.811 671.209C121.423 672.274 119.755 673.283 119.713 676.325H119.727Z" fill="#094036"/>
</svg>
